<svg width="76" height="17" viewBox="0 0 76 17" fill="none" xmlns="http://www.w3.org/2000/svg">
<path d="M28.908 10.908C28.7 11.136 28.502 11.326 28.314 11.478C28.126 11.63 27.938 11.752 27.75 11.844C27.562 11.932 27.366 11.994 27.162 12.03C26.962 12.066 26.746 12.084 26.514 12.084C26.162 12.084 25.85 12.024 25.578 11.904C25.31 11.784 25.084 11.616 24.9 11.4C24.72 11.18 24.582 10.918 24.486 10.614C24.394 10.306 24.348 9.968 24.348 9.6C24.348 9.108 24.424 8.636 24.576 8.184C24.732 7.732 24.948 7.332 25.224 6.984C25.5 6.636 25.828 6.358 26.208 6.15C26.592 5.942 27.01 5.838 27.462 5.838C27.866 5.838 28.204 5.91 28.476 6.054C28.748 6.194 28.986 6.4 29.19 6.672L28.854 7.074C28.826 7.106 28.794 7.132 28.758 7.152C28.726 7.172 28.688 7.182 28.644 7.182C28.588 7.182 28.532 7.158 28.476 7.11C28.424 7.058 28.354 7.002 28.266 6.942C28.178 6.878 28.068 6.822 27.936 6.774C27.808 6.722 27.642 6.696 27.438 6.696C27.162 6.696 26.902 6.772 26.658 6.924C26.414 7.072 26.2 7.276 26.016 7.536C25.832 7.796 25.686 8.104 25.578 8.46C25.474 8.816 25.422 9.198 25.422 9.606C25.422 9.854 25.45 10.08 25.506 10.284C25.562 10.484 25.646 10.656 25.758 10.8C25.87 10.94 26.006 11.05 26.166 11.13C26.33 11.206 26.52 11.244 26.736 11.244C27.004 11.244 27.228 11.204 27.408 11.124C27.592 11.044 27.746 10.958 27.87 10.866C27.994 10.77 28.098 10.682 28.182 10.602C28.27 10.522 28.356 10.482 28.44 10.482C28.516 10.482 28.584 10.516 28.644 10.584L28.908 10.908ZM32.05 11.25C32.342 11.25 32.606 11.17 32.842 11.01C33.082 10.85 33.286 10.638 33.454 10.374C33.626 10.106 33.758 9.798 33.85 9.45C33.942 9.102 33.988 8.738 33.988 8.358C33.988 7.798 33.876 7.378 33.652 7.098C33.432 6.814 33.114 6.672 32.698 6.672C32.402 6.672 32.134 6.752 31.894 6.912C31.658 7.068 31.456 7.278 31.288 7.542C31.12 7.806 30.99 8.112 30.898 8.46C30.806 8.808 30.76 9.172 30.76 9.552C30.76 10.112 30.87 10.536 31.09 10.824C31.31 11.108 31.63 11.25 32.05 11.25ZM31.948 12.084C31.616 12.084 31.312 12.028 31.036 11.916C30.76 11.8 30.522 11.634 30.322 11.418C30.122 11.202 29.966 10.938 29.854 10.626C29.742 10.314 29.686 9.958 29.686 9.558C29.686 9.046 29.766 8.564 29.926 8.112C30.086 7.66 30.306 7.266 30.586 6.93C30.866 6.59 31.194 6.322 31.57 6.126C31.95 5.93 32.358 5.832 32.794 5.832C33.126 5.832 33.43 5.89 33.706 6.006C33.982 6.118 34.22 6.282 34.42 6.498C34.62 6.714 34.776 6.978 34.888 7.29C35 7.602 35.056 7.956 35.056 8.352C35.056 8.86 34.976 9.34 34.816 9.792C34.656 10.244 34.436 10.64 34.156 10.98C33.88 11.32 33.552 11.59 33.172 11.79C32.792 11.986 32.384 12.084 31.948 12.084ZM40.1987 7.248C40.0467 7.032 39.8627 6.882 39.6467 6.798C39.4347 6.71 39.2187 6.666 38.9987 6.666C38.6827 6.666 38.3987 6.76 38.1467 6.948C37.8947 7.136 37.6787 7.38 37.4987 7.68C37.3227 7.976 37.1867 8.308 37.0907 8.676C36.9947 9.044 36.9467 9.406 36.9467 9.762C36.9467 10.238 37.0307 10.602 37.1987 10.854C37.3707 11.102 37.6147 11.226 37.9307 11.226C38.1227 11.226 38.3167 11.166 38.5127 11.046C38.7087 10.926 38.8967 10.76 39.0767 10.548C39.2607 10.332 39.4307 10.078 39.5867 9.786C39.7467 9.494 39.8847 9.174 40.0007 8.826L40.1987 7.248ZM41.7467 3.162L40.6607 12H40.1027C39.9627 12 39.8687 11.964 39.8207 11.892C39.7727 11.82 39.7487 11.732 39.7487 11.628L39.8627 10.35C39.7107 10.614 39.5447 10.852 39.3647 11.064C39.1847 11.276 38.9947 11.458 38.7947 11.61C38.5987 11.762 38.3927 11.88 38.1767 11.964C37.9647 12.044 37.7487 12.084 37.5287 12.084C37.0087 12.084 36.6047 11.896 36.3167 11.52C36.0287 11.14 35.8847 10.59 35.8847 9.87C35.8847 9.542 35.9187 9.214 35.9867 8.886C36.0547 8.558 36.1507 8.244 36.2747 7.944C36.4027 7.644 36.5547 7.366 36.7307 7.11C36.9107 6.85 37.1107 6.626 37.3307 6.438C37.5507 6.25 37.7867 6.102 38.0387 5.994C38.2947 5.886 38.5627 5.832 38.8427 5.832C39.1427 5.832 39.4147 5.892 39.6587 6.012C39.9067 6.128 40.1167 6.294 40.2887 6.51L40.7027 3.162H41.7467ZM45.3503 6.606C45.0983 6.606 44.8663 6.658 44.6543 6.762C44.4423 6.866 44.2543 7.01 44.0903 7.194C43.9263 7.374 43.7863 7.588 43.6702 7.836C43.5543 8.08 43.4643 8.344 43.4003 8.628C44.0163 8.552 44.5103 8.466 44.8823 8.37C45.2543 8.27 45.5403 8.164 45.7403 8.052C45.9403 7.936 46.0723 7.812 46.1363 7.68C46.2003 7.548 46.2323 7.41 46.2323 7.266C46.2323 7.194 46.2163 7.12 46.1843 7.044C46.1523 6.964 46.1003 6.892 46.0283 6.828C45.9603 6.764 45.8703 6.712 45.7583 6.672C45.6463 6.628 45.5103 6.606 45.3503 6.606ZM47.0423 10.878C46.8383 11.09 46.6383 11.272 46.4423 11.424C46.2463 11.572 46.0463 11.696 45.8423 11.796C45.6423 11.896 45.4303 11.968 45.2063 12.012C44.9863 12.06 44.7483 12.084 44.4923 12.084C44.1443 12.084 43.8323 12.026 43.5563 11.91C43.2803 11.794 43.0463 11.63 42.8543 11.418C42.6623 11.202 42.5143 10.942 42.4103 10.638C42.3063 10.334 42.2543 9.994 42.2543 9.618C42.2543 9.306 42.2863 8.996 42.3503 8.688C42.4183 8.376 42.5143 8.08 42.6383 7.8C42.7663 7.52 42.9203 7.26 43.1003 7.02C43.2843 6.78 43.4923 6.574 43.7243 6.402C43.9603 6.226 44.2183 6.088 44.4983 5.988C44.7823 5.888 45.0863 5.838 45.4103 5.838C45.7183 5.838 45.9843 5.882 46.2083 5.97C46.4323 6.058 46.6163 6.17 46.7603 6.306C46.9043 6.442 47.0103 6.592 47.0783 6.756C47.1503 6.92 47.1863 7.076 47.1863 7.224C47.1863 7.488 47.1323 7.732 47.0243 7.956C46.9163 8.176 46.7183 8.376 46.4303 8.556C46.1423 8.732 45.7463 8.886 45.2423 9.018C44.7383 9.15 44.0903 9.256 43.2983 9.336C43.2983 9.38 43.2963 9.424 43.2923 9.468C43.2923 9.508 43.2923 9.55 43.2923 9.594C43.2923 10.13 43.4083 10.54 43.6403 10.824C43.8763 11.104 44.2303 11.244 44.7023 11.244C44.8943 11.244 45.0642 11.224 45.2122 11.184C45.3643 11.144 45.4983 11.096 45.6143 11.04C45.7343 10.98 45.8383 10.916 45.9263 10.848C46.0183 10.776 46.1003 10.712 46.1723 10.656C46.2483 10.596 46.3183 10.546 46.3823 10.506C46.4463 10.466 46.5103 10.446 46.5743 10.446C46.6503 10.446 46.7183 10.48 46.7783 10.548L47.0423 10.878ZM52.533 10.908C52.325 11.136 52.127 11.326 51.939 11.478C51.751 11.63 51.563 11.752 51.375 11.844C51.187 11.932 50.991 11.994 50.787 12.03C50.587 12.066 50.371 12.084 50.139 12.084C49.787 12.084 49.475 12.024 49.203 11.904C48.935 11.784 48.709 11.616 48.525 11.4C48.345 11.18 48.207 10.918 48.111 10.614C48.019 10.306 47.973 9.968 47.973 9.6C47.973 9.108 48.049 8.636 48.201 8.184C48.357 7.732 48.573 7.332 48.849 6.984C49.125 6.636 49.453 6.358 49.833 6.15C50.217 5.942 50.635 5.838 51.087 5.838C51.491 5.838 51.829 5.91 52.101 6.054C52.373 6.194 52.611 6.4 52.815 6.672L52.479 7.074C52.451 7.106 52.419 7.132 52.383 7.152C52.351 7.172 52.313 7.182 52.269 7.182C52.213 7.182 52.157 7.158 52.101 7.11C52.049 7.058 51.979 7.002 51.891 6.942C51.803 6.878 51.693 6.822 51.561 6.774C51.433 6.722 51.267 6.696 51.063 6.696C50.787 6.696 50.527 6.772 50.283 6.924C50.039 7.072 49.825 7.276 49.641 7.536C49.457 7.796 49.311 8.104 49.203 8.46C49.099 8.816 49.047 9.198 49.047 9.606C49.047 9.854 49.075 10.08 49.131 10.284C49.187 10.484 49.271 10.656 49.383 10.8C49.495 10.94 49.631 11.05 49.791 11.13C49.955 11.206 50.145 11.244 50.361 11.244C50.629 11.244 50.853 11.204 51.033 11.124C51.217 11.044 51.371 10.958 51.495 10.866C51.619 10.77 51.723 10.682 51.807 10.602C51.895 10.522 51.981 10.482 52.065 10.482C52.141 10.482 52.209 10.516 52.269 10.584L52.533 10.908ZM54.9522 7.614C55.1122 7.274 55.2842 6.98 55.4682 6.732C55.6562 6.48 55.8522 6.284 56.0562 6.144C56.2602 6 56.4702 5.914 56.6862 5.886C56.9022 5.854 57.1222 5.886 57.3462 5.982L57.1542 7.008C56.6342 6.8 56.1742 6.876 55.7742 7.236C55.3782 7.596 55.0562 8.246 54.8082 9.186L54.4722 12H53.4282L54.1602 5.916H54.6882C54.9322 5.916 55.0542 6.036 55.0542 6.276L54.9522 7.614ZM61.3657 6.666C61.2777 6.646 61.1897 6.634 61.1017 6.63C61.0177 6.622 60.9337 6.618 60.8497 6.618C60.6097 6.618 60.3777 6.658 60.1537 6.738C59.9297 6.814 59.7197 6.922 59.5237 7.062C59.3277 7.202 59.1497 7.37 58.9897 7.566C58.8297 7.758 58.6917 7.97 58.5757 8.202C58.4637 8.434 58.3757 8.682 58.3117 8.946C58.2477 9.206 58.2157 9.474 58.2157 9.75C58.2157 10.714 58.5237 11.196 59.1397 11.196C59.3357 11.196 59.5277 11.136 59.7157 11.016C59.9037 10.892 60.0817 10.722 60.2497 10.506C60.4217 10.286 60.5797 10.028 60.7237 9.732C60.8677 9.432 60.9957 9.104 61.1077 8.748L61.3657 6.666ZM60.9577 10.398C60.8137 10.654 60.6577 10.886 60.4897 11.094C60.3257 11.302 60.1497 11.48 59.9617 11.628C59.7777 11.772 59.5817 11.884 59.3737 11.964C59.1697 12.044 58.9577 12.084 58.7377 12.084C58.4977 12.084 58.2797 12.038 58.0837 11.946C57.8877 11.85 57.7197 11.712 57.5797 11.532C57.4437 11.348 57.3377 11.124 57.2617 10.86C57.1857 10.592 57.1477 10.286 57.1477 9.942C57.1477 9.582 57.1917 9.232 57.2797 8.892C57.3717 8.548 57.4997 8.224 57.6637 7.92C57.8317 7.616 58.0317 7.338 58.2637 7.086C58.4957 6.83 58.7537 6.61 59.0377 6.426C59.3257 6.238 59.6337 6.094 59.9617 5.994C60.2897 5.89 60.6337 5.838 60.9937 5.838C61.2537 5.838 61.5057 5.86 61.7497 5.904C61.9977 5.944 62.2417 6.016 62.4817 6.12L61.7557 12H61.2037C61.0637 12 60.9677 11.964 60.9157 11.892C60.8677 11.82 60.8437 11.732 60.8437 11.628L60.9577 10.398ZM65.4126 6.042H68.0106L68.4666 4.152C68.4866 4.092 68.5166 4.044 68.5566 4.008C68.6006 3.968 68.6546 3.948 68.7186 3.948H69.2826L69.0246 6.042H70.6206L70.5366 6.792H68.9286L68.5626 9.804C68.5426 9.968 68.5266 10.1 68.5146 10.2C68.5026 10.3 68.4926 10.38 68.4846 10.44C68.4806 10.5 68.4766 10.542 68.4726 10.566C68.4726 10.59 68.4726 10.608 68.4726 10.62C68.4726 10.824 68.5186 10.976 68.6106 11.076C68.7066 11.172 68.8366 11.22 69.0006 11.22C69.1046 11.22 69.1966 11.206 69.2766 11.178C69.3566 11.146 69.4246 11.112 69.4806 11.076C69.5406 11.04 69.5906 11.008 69.6306 10.98C69.6706 10.948 69.7066 10.932 69.7386 10.932C69.7986 10.932 69.8426 10.966 69.8706 11.034L70.0926 11.544C69.9006 11.716 69.6786 11.852 69.4266 11.952C69.1786 12.048 68.9286 12.096 68.6766 12.096C68.2886 12.096 67.9826 11.99 67.7586 11.778C67.5346 11.566 67.4186 11.258 67.4106 10.854C67.4106 10.83 67.4106 10.8 67.4106 10.764C67.4146 10.724 67.4186 10.668 67.4226 10.596C67.4306 10.524 67.4406 10.43 67.4526 10.314C67.4646 10.198 67.4826 10.046 67.5066 9.858L67.8846 6.792H65.3646L64.7526 11.802L64.4706 13.044C64.4266 13.188 64.3606 13.298 64.2726 13.374C64.1886 13.454 64.0706 13.494 63.9186 13.494H63.4986L64.3086 6.798L63.7206 6.726C63.6406 6.714 63.5766 6.688 63.5286 6.648C63.4846 6.604 63.4666 6.542 63.4746 6.462L63.5286 6.042H64.4046L64.4766 5.454C64.5206 5.106 64.6066 4.798 64.7346 4.53C64.8666 4.258 65.0306 4.03 65.2266 3.846C65.4266 3.658 65.6526 3.516 65.9046 3.42C66.1606 3.324 66.4366 3.276 66.7326 3.276C66.9766 3.276 67.2026 3.316 67.4106 3.396L67.3086 3.948C67.3006 3.988 67.2826 4.018 67.2546 4.038C67.2266 4.054 67.1886 4.064 67.1406 4.068C67.0966 4.072 67.0446 4.074 66.9846 4.074C66.9286 4.07 66.8666 4.068 66.7986 4.068C66.6266 4.068 66.4666 4.094 66.3186 4.146C66.1746 4.194 66.0466 4.274 65.9346 4.386C65.8226 4.498 65.7266 4.644 65.6466 4.824C65.5706 5.004 65.5166 5.224 65.4846 5.484L65.4126 6.042ZM75.1001 6.894C75.0681 6.942 75.0361 6.978 75.0041 7.002C74.9721 7.022 74.9321 7.032 74.8841 7.032C74.8281 7.032 74.7661 7.01 74.6981 6.966C74.6341 6.922 74.5541 6.874 74.4581 6.822C74.3661 6.766 74.2521 6.716 74.1161 6.672C73.9801 6.624 73.8161 6.6 73.6241 6.6C73.4441 6.6 73.2801 6.626 73.1321 6.678C72.9841 6.726 72.8561 6.794 72.7481 6.882C72.6441 6.97 72.5621 7.074 72.5021 7.194C72.4461 7.31 72.4181 7.434 72.4181 7.566C72.4181 7.754 72.4801 7.904 72.6041 8.016C72.7281 8.128 72.8841 8.226 73.0721 8.31C73.2601 8.39 73.4621 8.468 73.6781 8.544C73.8941 8.62 74.0961 8.716 74.2841 8.832C74.4721 8.948 74.6281 9.096 74.7521 9.276C74.8761 9.456 74.9381 9.69 74.9381 9.978C74.9381 10.258 74.8821 10.526 74.7701 10.782C74.6621 11.038 74.5041 11.264 74.2961 11.46C74.0921 11.652 73.8441 11.806 73.5521 11.922C73.2641 12.038 72.9401 12.096 72.5801 12.096C72.1921 12.096 71.8481 12.028 71.5481 11.892C71.2521 11.752 71.0101 11.574 70.8221 11.358L71.0861 10.95C71.1221 10.898 71.1601 10.858 71.2001 10.83C71.2441 10.802 71.3001 10.788 71.3681 10.788C71.4321 10.788 71.4961 10.816 71.5601 10.872C71.6241 10.928 71.7041 10.992 71.8001 11.064C71.8961 11.132 72.0161 11.194 72.1601 11.25C72.3081 11.306 72.4941 11.334 72.7181 11.334C72.9141 11.334 73.0901 11.304 73.2461 11.244C73.4061 11.184 73.5401 11.104 73.6481 11.004C73.7601 10.904 73.8441 10.788 73.9001 10.656C73.9601 10.52 73.9901 10.376 73.9901 10.224C73.9901 10.02 73.9281 9.858 73.8041 9.738C73.6801 9.618 73.5241 9.518 73.3361 9.438C73.1481 9.358 72.9461 9.284 72.7301 9.216C72.5141 9.144 72.3121 9.054 72.1241 8.946C71.9361 8.834 71.7801 8.69 71.6561 8.514C71.5321 8.338 71.4701 8.104 71.4701 7.812C71.4701 7.556 71.5201 7.31 71.6201 7.074C71.7241 6.834 71.8721 6.622 72.0641 6.438C72.2561 6.254 72.4881 6.108 72.7601 6C73.0361 5.888 73.3461 5.832 73.6901 5.832C74.0541 5.832 74.3741 5.894 74.6501 6.018C74.9301 6.138 75.1701 6.302 75.3701 6.51L75.1001 6.894Z" fill="white"/>
<path d="M21 1V16.5" stroke="white" stroke-width="0.3"/>
<path d="M5.988 6.334L5.898 7.096C5.89 7.164 5.866 7.224 5.826 7.276C5.786 7.324 5.726 7.368 5.646 7.408L2.778 8.776C2.694 8.816 2.604 8.852 2.508 8.884C2.416 8.916 2.318 8.942 2.214 8.962C2.314 8.986 2.406 9.014 2.49 9.046C2.578 9.074 2.66 9.11 2.736 9.154L5.262 10.516C5.334 10.556 5.384 10.602 5.412 10.654C5.44 10.706 5.45 10.764 5.442 10.828L5.34 11.596L1.002 9.184L1.038 8.854H1.044L1.056 8.74L5.988 6.334ZM7.87894 13.15C7.81494 13.278 7.72494 13.376 7.60894 13.444C7.49294 13.512 7.38094 13.546 7.27294 13.546H6.83494L11.1849 4.672C11.2449 4.556 11.3249 4.464 11.4249 4.396C11.5249 4.328 11.6389 4.294 11.7669 4.294H12.2049L7.87894 13.15ZM17.9826 9.076L17.9706 9.184L13.0326 11.596L13.1286 10.828C13.1366 10.764 13.1586 10.706 13.1946 10.654C13.2346 10.602 13.2966 10.556 13.3806 10.516L16.2426 9.154C16.3266 9.11 16.4146 9.074 16.5066 9.046C16.5986 9.014 16.6966 8.986 16.8006 8.962C16.6006 8.918 16.4286 8.856 16.2846 8.776L13.7586 7.408C13.6866 7.368 13.6366 7.324 13.6086 7.276C13.5846 7.224 13.5766 7.164 13.5846 7.096L13.6746 6.334L18.0246 8.74L17.9826 9.076Z" fill="white"/>
</svg>
