<?xml version="1.0" standalone="yes"?>
<svg xmlns="http://www.w3.org/2000/svg" width="2000" height="300">
<path style="fill:#010101; stroke:none;" d="M0 0L0 323L1080 323L1080 0L0 0z"/>
<path style="fill:#355f4d; stroke:none;" d="M239 23L240 23L243 21L239 23z"/>
<path style="fill:#01c774; stroke:none;" d="M160 299L192 308L208.424 252L243.424 131L263.421 62L272 29L249 22.5795L240.089 22.6072L233.291 44L217.579 98L178.576 233L160 299z"/>
<path style="fill:#355f4d; stroke:none;" d="M245 21L246 22L245 21M248.667 22.3333L249.333 22.6667L248.667 22.3333M252 23L253 24L252 23M238.333 24.6667L238.667 25.3333L238.333 24.6667M255.667 24.3333L256.333 24.6667L255.667 24.3333M259 25L260 26L259 25M262.667 26.3333L263.333 26.6667L262.667 26.3333M237 27L237 30L238 30L237 27M265.667 27.3333L266.333 27.6667L265.667 27.3333M269.667 28.3333L270.333 28.6667L269.667 28.3333M272 29L272 33L273 33L272 29M236.333 31.6667L236.667 32.3333L236.333 31.6667M235 34L235 37L236 37L235 34M271.333 34.6667L271.667 35.3333L271.333 34.6667M270.333 37.6667L270.667 38.3333L270.333 37.6667M234.333 38.6667L234.667 39.3333L234.333 38.6667M233 41L233 44L234 44L233 41M269.333 41.6667L269.667 42.3333L269.333 41.6667M268.333 44.6667L268.667 45.3333L268.333 44.6667M232.333 45.6667L232.667 46.3333L232.333 45.6667M267 47L267 50L268 50L267 47M231 48L231 51L232 51L231 48M266.333 51.6667L266.667 52.3333L266.333 51.6667M230.333 52.6667L230.667 53.3333L230.333 52.6667M265 54L265 57L266 57L265 54M229.333 55.6667L229.667 56.3333L229.333 55.6667M264.333 58.6667L264.667 59.3333L264.333 58.6667M228.333 59.6667L228.667 60.3333L228.333 59.6667M263 61L263 64L264 64L263 61M227.333 62.6667L227.667 63.3333L227.333 62.6667M226 65L226 68L227 68L226 65M262.333 65.6667L262.667 66.3333L262.333 65.6667M261 68L261 71L262 71L261 68M165 69L164 71L165 69z"/>
<path style="fill:#01c774; stroke:none;" d="M166 69C135.859 92.1677 103.169 112.501 72 134.28C59.0955 143.297 40.9539 151.774 31 164L127 232.14L167 260L167 229L166.397 214.3L146 198.341L97 163C114.585 155.603 131.346 140.218 147 129.28C152.607 125.362 162.565 120.908 165.972 114.826C167.816 111.535 167 106.631 167 103C167 93.1528 169.808 78.0739 166 69z"/>
<path style="fill:#355f4d; stroke:none;" d="M167 69L167 115L168 115C168 101.997 172.01 80.9389 167 69M225.333 69.6667L225.667 70.3333L225.333 69.6667M162 71L163 72L162 71M161 72L162 73L161 72M224 72L224 75L225 75L224 72M260.333 72.6667L260.667 73.3333L260.333 72.6667M159 73L160 74L159 73M158 74L159 75L158 74M156 75L157 76L156 75M259 75L259 78L260 78L259 75M155 76L156 77L155 76M223.333 76.6667L223.667 77.3333L223.333 76.6667M152 78L153 79L152 78M151 79L152 80L151 79M222 79L222 82L223 82L222 79M258.333 79.6667L258.667 80.3333L258.333 79.6667M149 80L150 81L149 80M148 81L149 82L148 81M146 82L147 83L146 82M257.333 82.6667L257.667 83.3333L257.333 82.6667M145 83L146 84L145 83M221.333 83.6667L221.667 84.3333L221.333 83.6667M143 84L144 85L143 84M142 85L143 86L142 85M220 86L220 89L221 89L220 86M256.333 86.6667L256.667 87.3333L256.333 86.6667M139 87L140 88L139 87M138 88L139 89L138 88M136 89L137 90L136 89M255.333 89.6667L255.667 90.3333L255.333 89.6667M135 90L136 91L135 90M219.333 90.6667L219.667 91.3333L219.333 90.6667M133 91L134 92L133 91M132 92L133 93L132 92M254 92L254 95L255 95L254 92M392 92L392 93L409 93L409 235L392 235L392 236L410 236L410 92L392 92M130 93L131 94L130 93M218.333 93.6667L218.667 94.3333L218.333 93.6667z"/>
<path style="fill:#01c774; stroke:none;" d="M392 93L392 235L409 235L409 93L392 93z"/>
<path style="fill:#355f4d; stroke:none;" d="M129 94L130 95L129 94M126 96L127 97L126 96M217 96L217 99L218 99L217 96M253.333 96.6667L253.667 97.3333L253.333 96.6667M125 97L126 98L125 97M123 98L124 99L123 98M122 99L123 100L122 99M252 99L252 102L253 102L252 99M120 100L121 101L120 100M216.333 100.667L216.667 101.333L216.333 100.667M119 101L120 102L119 101M117 102L118 103L117 102M116 103L117 104L116 103M215 103L215 106L216 106L215 103M251.333 103.667L251.667 104.333L251.333 103.667M269 103L270 104L269 103z"/>
<path style="fill:#01c774; stroke:none;" d="M270 103L259 142L295 167L258 192.141L240.51 205.174L233.975 223L223 262L262 235.72L360 167L360 165L270 103z"/>
<path style="fill:#355f4d; stroke:none;" d="M271 103L272 104L271 103M272 104L273 105L272 104M113 105L114 106L113 105M268 105L268 108L269 108L268 105M274 105L275 106L274 105M112 106L113 107L112 106M250 106L250 109L251 109L250 106M275 106L276 107L275 106M110 107L111 108L110 107M214.333 107.667L214.667 108.333L214.333 107.667M109 108L110 109L109 108M278 108L279 109L278 108M107 109L108 110L107 109M267.333 109.667L267.667 110.333L267.333 109.667M279 109L280 110L279 109M106 110L107 111L106 110M213 110L213 113L214 113L213 110M249.333 110.667L249.667 111.333L249.333 110.667M281 110L282 111L281 110M282 111L283 112L282 111M103 112L104 113L103 112M266 112L266 115L267 115L266 112M284 112L285 113L284 112M248 113L248 116L249 116L248 113M285 113L286 114L285 113M100 114L101 115L100 114M212.333 114.667L212.667 115.333L212.333 114.667M99 115L100 116L99 115M166 115L167 116L166 115M288 115L289 116L288 115M97 116L98 117L97 116M165 116L166 117L165 116M265.333 116.667L265.667 117.333L265.333 116.667M289 116L290 117L289 116M96 117L97 118L96 117M163 117L164 118L163 117M211 117L211 120L212 120L211 117M247.333 117.667L247.667 118.333L247.333 117.667M291 117L292 118L291 117M885 117L885 118L888 118L885 117z"/>
<path style="fill:#9e9e9e; stroke:none;" d="M888 117L888 118L893 118L888 117z"/>
<path style="fill:#355f4d; stroke:none;" d="M893 117L893 118L896 118L893 117M94 118L95 119L94 118M162 118L163 119L162 118M292 118L293 119L292 118M881 118L882 119L881 118z"/>
<path style="fill:#9e9e9e; stroke:none;" d="M882 118L883 119L882 118z"/>
<path style="fill:#fcfcfc; stroke:none;" d="M867 143C857.219 143.116 859 150.104 859 158L867 158L867 202L887 202C887 189.915 884.122 173.696 887.318 162.059C888.722 156.946 899.975 156.181 903.397 159.603C907.735 163.942 904.555 177.246 905.174 183C907.32 202.974 923.532 205.068 940 202L938 188C925.749 187.957 924.999 180.482 925 170C925 166.899 924.177 162.029 926.603 159.603C929.339 156.867 935.474 158 939 158L939 143L925 143L925 127C921.127 127 911.719 125.279 909.024 128.603C905.778 132.606 909.266 140.883 902.891 142.682C888.123 146.85 883.415 132.841 900 134L903 120C884.3 112.997 867.42 122.655 867 143z"/>
<path style="fill:#9e9e9e; stroke:none;" d="M898.667 118.333L899.333 118.667L898.667 118.333z"/>
<path style="fill:#355f4d; stroke:none;" d="M900 118L901 119L900 118M93 119L94 120L93 119M264 119L264 122L265 122L264 119M294 119L295 120L294 119M597 119L597 140L598 140L597 119z"/>
<path style="fill:#fcfcfc; stroke:none;" d="M598 119L599 147C560.679 115.615 542.251 209.973 587 203.493C592.251 202.733 596.571 199.666 601 197C602.602 204.342 612.02 202 618 202L618 119L598 119z"/>
<path style="fill:#9e9e9e; stroke:none;" d="M618 119L618 202L602 200L601 200C603.537 203.913 617.015 205.466 618.682 199.852C620.319 194.34 619 186.729 619 181L619 142C619 135.049 620.701 125.436 618 119z"/>
<path style="fill:#355f4d; stroke:none;" d="M619 119L619 202L620 202L620 145L619 119M878 119L879 120L878 119z"/>
<path style="fill:#9e9e9e; stroke:none;" d="M879 119L880 120L879 119M902 119L904 121L902 119z"/>
<path style="fill:#355f4d; stroke:none;" d="M903 119L904 120L903 119M159 120L160 121L159 120M246.333 120.667L246.667 121.333L246.333 120.667M295 120L296 121L295 120M876 120L877 121L876 120z"/>
<path style="fill:#9e9e9e; stroke:none;" d="M877 120L878 121L877 120z"/>
<path style="fill:#355f4d; stroke:none;" d="M90 121L91 122L90 121M158 121L159 122L158 121M210.333 121.667L210.667 122.333L210.333 121.667M297 121L298 122L297 121z"/>
<path style="fill:#9e9e9e; stroke:none;" d="M875 121L876 122L875 121z"/>
<path style="fill:#355f4d; stroke:none;" d="M903.333 121.667L903.667 122.333L903.333 121.667M156 122L157 123L156 122M298 122L299 123L298 122M873 122L871 125L873 122z"/>
<path style="fill:#9e9e9e; stroke:none;" d="M874 122L875 123L874 122M902 122L902 125L903 125L902 122z"/>
<path style="fill:#355f4d; stroke:none;" d="M87 123L88 124L87 123M155 123L156 124L155 123M263.333 123.667L263.667 124.333L263.333 123.667z"/>
<path style="fill:#9e9e9e; stroke:none;" d="M873 123L874 124L873 123z"/>
<path style="fill:#355f4d; stroke:none;" d="M86 124L87 125L86 124M153 124L154 125L153 124M209.333 124.667L209.667 125.333L209.333 124.667M245.333 124.667L245.667 125.333L245.333 124.667M301 124L302 125L301 124z"/>
<path style="fill:#9e9e9e; stroke:none;" d="M872 124L873 125L872 124z"/>
<path style="fill:#355f4d; stroke:none;" d="M84 125L85 126L84 125M152 125L153 126L152 125M302 125L303 126L302 125z"/>
<path style="fill:#9e9e9e; stroke:none;" d="M871 125L872 126L871 125z"/>
<path style="fill:#355f4d; stroke:none;" d="M902 125L902 128L903 128L902 125M83 126L84 127L83 126M150 126L151 127L150 126M304 126L305 127L304 126z"/>
<path style="fill:#9e9e9e; stroke:none;" d="M870 126L869 130L870 130L870 126M901 126L901 129L902 129L901 126z"/>
<path style="fill:#355f4d; stroke:none;" d="M81 127L82 128L81 127M149 127L150 128L149 127M244.333 127.667L244.667 128.333L244.333 127.667M262.333 127.667L262.667 128.333L262.333 127.667M305 127L306 128L305 127M869 127L870 128L869 127M907 127L907 131L908 131L907 127z"/>
<path style="fill:#9e9e9e; stroke:none;" d="M908 127L909 128L908 127M925 127L925 143L939 143L939 142L926 142L925 127z"/>
<path style="fill:#355f4d; stroke:none;" d="M80 128L81 129L80 128M208.333 128.667L208.667 129.333L208.333 128.667M307 128L308 129L307 128M146 129L147 130L146 129M308 129L309 130L308 129M868.333 129.667L868.667 130.333L868.333 129.667M901 129L901 132L902 132L901 129M77 130L78 131L77 130M145 130L146 131L145 130M243 130L243 133L244 133L243 130M261.333 130.667L261.667 131.333L261.333 130.667M143 131L144 132L143 131M207.333 131.667L207.667 132.333L207.333 131.667M311 131L312 132L311 131z"/>
<path style="fill:#9e9e9e; stroke:none;" d="M868 131L869 132L868 131M900 131L898 134L898 135L900 131M907 131L907 135L908 135L907 131z"/>
<path style="fill:#355f4d; stroke:none;" d="M74 132L75 133L74 132M142 132L143 133L142 132M312 132L313 133L312 132M867.333 132.667L867.667 133.333L867.333 132.667M73 133L74 134L73 133M140 133L141 134L140 133M314 133L315 134L314 133z"/>
<path style="fill:#9e9e9e; stroke:none;" d="M892 133L892 134L896 134L892 133z"/>
<path style="fill:#355f4d; stroke:none;" d="M906 133L906 137L907 137L906 133M71 134L72 135L71 134M139 134L140 135L139 134M206 134L206 137L207 137L206 134M242.333 134.667L242.667 135.333L242.333 134.667M260.333 134.667L260.667 135.333L260.333 134.667M315 134L316 135L315 134z"/>
<path style="fill:#9e9e9e; stroke:none;" d="M867 134L867 137L868 137L867 134M890 134L891 135L890 134z"/>
<path style="fill:#355f4d; stroke:none;" d="M891 134L892 135L891 134M896.667 134.333L897.333 134.667L896.667 134.333M900 134L901 135L900 134M70 135L71 136L70 135M137 135L138 136L137 135M317 135L318 136L317 135z"/>
<path style="fill:#9e9e9e; stroke:none;" d="M889 135L890 136L889 135z"/>
<path style="fill:#355f4d; stroke:none;" d="M68 136L69 137L68 136M136 136L137 137L136 136M318 136L319 137L318 136z"/>
<path style="fill:#9e9e9e; stroke:none;" d="M888 136L889 137L888 136z"/>
<path style="fill:#355f4d; stroke:none;" d="M67 137L68 138L67 137M241 137L241 140L242 140L241 137M259 137L259 140L260 140L259 137M320 137L321 138L320 137M888 137L888 142L889 142L888 137z"/>
<path style="fill:#9e9e9e; stroke:none;" d="M906 137L906 141L907 141L906 137z"/>
<path style="fill:#355f4d; stroke:none;" d="M133 138L134 139L133 138M205.333 138.667L205.667 139.333L205.333 138.667M321 138L322 139L321 138M866 138L866 142C855.577 142.124 858 150.827 858 159L859 159L859 143C862.689 142.956 867.592 142.859 866 138z"/>
<path style="fill:#9e9e9e; stroke:none;" d="M887 138L887 142L888 142L887 138z"/>
<path style="fill:#355f4d; stroke:none;" d="M64 139L65 140L64 139M132 139L133 140L132 139M322 139L323 140L322 139M130 140L131 141L130 140M324 140L325 141L324 140M468 140L468 141L475 141L468 140M519 140L519 141L526 141L519 140M582 140L582 141L588 141L582 140M655 140L655 141L662 141L655 140M721 140L721 141L728 141L721 140M786 140L786 141L792 141L786 140M821 140L821 141L829 141L821 140M905.333 140.667L905.667 141.333L905.333 140.667M968 140L968 141L975 141L968 140M61 141L62 142L61 141M129 141L130 142L129 141M204 141L204 144L205 144L204 141M240.333 141.667L240.667 142.333L240.333 141.667M325 141L326 142L325 141M463 141L463 142L466 142L463 141z"/>
<path style="fill:#9e9e9e; stroke:none;" d="M466.667 141.333L467.333 141.667L466.667 141.333z"/>
<path style="fill:#fcfcfc; stroke:none;" d="M489 198L482 184C479.225 185.418 476.216 187.39 473 187.457C453.492 187.863 459.664 148.318 479 160C491.153 150.107 487.17 141.522 472 141.129C462.835 140.891 453.182 145.156 447.213 152.015C434.828 166.246 438.463 192.337 456 200.672C466.972 205.887 478.743 203.369 489 198z"/>
<path style="fill:#9e9e9e; stroke:none;" d="M475 141L475 142L478 142L475 141z"/>
<path style="fill:#355f4d; stroke:none;" d="M478.667 141.333L479.333 141.667L478.667 141.333M514 141L514 142L517 142L514 141z"/>
<path style="fill:#9e9e9e; stroke:none;" d="M517.667 141.333L518.333 141.667L517.667 141.333z"/>
<path style="fill:#fcfcfc; stroke:none;" d="M519 141.44C481.693 147.135 486.772 208.625 525 203.546C563.947 198.372 558.052 135.478 519 141.44z"/>
<path style="fill:#9e9e9e; stroke:none;" d="M526.667 141.333L527.333 141.667L526.667 141.333z"/>
<path style="fill:#355f4d; stroke:none;" d="M528 141L528 142L531 142L528 141M578.667 141.333L579.333 141.667L578.667 141.333z"/>
<path style="fill:#9e9e9e; stroke:none;" d="M580.667 141.333L581.333 141.667L580.667 141.333M588.667 141.333L589.333 141.667L588.667 141.333z"/>
<path style="fill:#355f4d; stroke:none;" d="M590.667 141.333L591.333 141.667L590.667 141.333z"/>
<path style="fill:#9e9e9e; stroke:none;" d="M598 141L598 147L599 147L598 141z"/>
<path style="fill:#355f4d; stroke:none;" d="M651.667 141.333L652.333 141.667L651.667 141.333z"/>
<path style="fill:#9e9e9e; stroke:none;" d="M653.667 141.333L654.333 141.667L653.667 141.333z"/>
<path style="fill:#fcfcfc; stroke:none;" d="M682 197C680.603 193.662 678.719 187.897 674.815 186.788C665.644 184.182 653.19 193.763 650 178L684 178C684 167.876 684.669 157.358 677.61 149.093C665.596 135.028 642.084 141.177 633.905 156C625.521 171.194 630.008 193.924 647 200.906C658.969 205.824 671.154 203.329 682 197z"/>
<path style="fill:#9e9e9e; stroke:none;" d="M662 141L662 142L665 142L662 141z"/>
<path style="fill:#355f4d; stroke:none;" d="M665.667 141.333L666.333 141.667L665.667 141.333M716 141L716 142L719 142L716 141z"/>
<path style="fill:#9e9e9e; stroke:none;" d="M719.667 141.333L720.333 141.667L719.667 141.333z"/>
<path style="fill:#fcfcfc; stroke:none;" d="M742 198L735 184C731.903 185.399 728.537 187.722 725 187.468C706.263 186.12 713.379 148.749 732 160L733 160L742 148C732.581 137.042 712.772 140.427 703.015 149.185C688.229 162.457 689.636 190.543 708 200.175C712.396 202.481 718.014 203.88 723 203.741C729.893 203.548 736.003 201.139 742 198z"/>
<path style="fill:#9e9e9e; stroke:none;" d="M728 141L728 142L731 142L728 141z"/>
<path style="fill:#355f4d; stroke:none;" d="M731.667 141.333L732.333 141.667L731.667 141.333M783 141L784 142L783 141z"/>
<path style="fill:#9e9e9e; stroke:none;" d="M784.667 141.333L785.333 141.667L784.667 141.333z"/>
<path style="fill:#fcfcfc; stroke:none;" d="M770 152C769.899 140.801 762.028 143 753 143L753 202L773 202C773 183.305 767.591 159.003 793 159L795 142C783.376 139.85 778.569 145.472 770 152z"/>
<path style="fill:#9e9e9e; stroke:none;" d="M792.667 141.333L793.333 141.667L792.667 141.333z"/>
<path style="fill:#355f4d; stroke:none;" d="M794.667 141.333L795.333 141.667L794.667 141.333M815 141L815 142L818 142L815 141z"/>
<path style="fill:#9e9e9e; stroke:none;" d="M818 141L818 142L821 142L818 141z"/>
<path style="fill:#fcfcfc; stroke:none;" d="M799 149C800.397 152.355 802.414 159.294 806.213 160.583C814.433 163.37 824.148 150.074 829 164C818.74 164.811 805.947 166.959 799.653 176.004C791.931 187.1 800.388 202.062 813 203.521C820.138 204.347 826.075 200.282 832 197L833 202L850 202C850 180.698 856.828 143.804 827 141.174C822.708 140.796 818.177 141.724 814 142.665C808.609 143.879 803.746 146.23 799 149z"/>
<path style="fill:#9e9e9e; stroke:none;" d="M829.667 141.333L830.333 141.667L829.667 141.333z"/>
<path style="fill:#355f4d; stroke:none;" d="M831 141L831 142L834 142L831 141M926 141L927 142L926 141M962 141L962 142L965 142L962 141z"/>
<path style="fill:#9e9e9e; stroke:none;" d="M965 141L965 142L968 142L965 141z"/>
<path style="fill:#fcfcfc; stroke:none;" d="M952 184L945 196C954.983 202.579 966.266 205.488 978 202.24C988.309 199.386 996.075 188.771 991.852 178C988.665 169.872 980.227 167.562 973.004 164.38C971.003 163.499 966.633 161.657 967.613 158.708C969.831 152.031 980.189 159.841 983.91 159.123C987.688 158.393 990.648 152.718 993 150C979.925 134.748 940.159 140.334 948.854 166C951.643 174.232 959.886 176.598 966.999 179.866C969.183 180.869 973.662 182.715 972.654 185.895C970.23 193.549 956.273 184.814 952 184z"/>
<path style="fill:#9e9e9e; stroke:none;" d="M975 141L975 142L978 142L975 141z"/>
<path style="fill:#355f4d; stroke:none;" d="M978 141L978 142L981 142L978 141M60 142L61 143L60 142M127 142L128 143L127 142M260 142L261 143L260 142M327 142L328 143L327 142M460 142L461 143L460 142z"/>
<path style="fill:#9e9e9e; stroke:none;" d="M461.667 142.333L462.333 142.667L461.667 142.333M480 142L481 143L480 142z"/>
<path style="fill:#355f4d; stroke:none;" d="M481.667 142.333L482.333 142.667L481.667 142.333M511.667 142.333L512.333 142.667L511.667 142.333z"/>
<path style="fill:#9e9e9e; stroke:none;" d="M513 142L514 143L513 142M531 142L532 143L531 142z"/>
<path style="fill:#355f4d; stroke:none;" d="M532.667 142.333L533.333 142.667L532.667 142.333M576 142L577 143L576 142z"/>
<path style="fill:#9e9e9e; stroke:none;" d="M577 142L578 143L577 142M592 142L593 143L592 142z"/>
<path style="fill:#355f4d; stroke:none;" d="M593 142L594 143L593 142M648 142L649 143L648 142z"/>
<path style="fill:#9e9e9e; stroke:none;" d="M649.667 142.333L650.333 142.667L649.667 142.333M667.667 142.333L668.333 142.667L667.667 142.333z"/>
<path style="fill:#355f4d; stroke:none;" d="M669 142L670 143L669 142M713 142L714 143L713 142z"/>
<path style="fill:#9e9e9e; stroke:none;" d="M714.667 142.333L715.333 142.667L714.667 142.333M733 142L734 143L733 142z"/>
<path style="fill:#355f4d; stroke:none;" d="M734.667 142.333L735.333 142.667L734.667 142.333M752 142L753 143L752 142z"/>
<path style="fill:#9e9e9e; stroke:none;" d="M753 142L753 143L769 145C769.787 140.223 756.358 142 753 142z"/>
<path style="fill:#355f4d; stroke:none;" d="M769 142L770 143L769 142M780.667 142.333L781.333 142.667L780.667 142.333z"/>
<path style="fill:#9e9e9e; stroke:none;" d="M782 142L783 143L782 142M795 142L795 146L796 146L795 142z"/>
<path style="fill:#355f4d; stroke:none;" d="M811.667 142.333L812.333 142.667L811.667 142.333z"/>
<path style="fill:#9e9e9e; stroke:none;" d="M813.667 142.333L814.333 142.667L813.667 142.333M834 142L835 143L834 142z"/>
<path style="fill:#355f4d; stroke:none;" d="M835.667 142.333L836.333 142.667L835.667 142.333z"/>
<path style="fill:#9e9e9e; stroke:none;" d="M866 142L867 143L866 142M888 142L888 143L906 143L888 142z"/>
<path style="fill:#355f4d; stroke:none;" d="M939 142L939 159L940 159L939 142M959.667 142.333L960.333 142.667L959.667 142.333z"/>
<path style="fill:#9e9e9e; stroke:none;" d="M961 142L962 143L961 142M981 142L982 143L981 142z"/>
<path style="fill:#355f4d; stroke:none;" d="M982 142L983 143L982 142M58 143L59 144L58 143M126 143L127 144L126 143M261 143L262 144L261 143M328 143L329 144L328 143M457 143L458 144L457 143z"/>
<path style="fill:#9e9e9e; stroke:none;" d="M458.667 143.333L459.333 143.667L458.667 143.333M483 143L484 144L483 143z"/>
<path style="fill:#355f4d; stroke:none;" d="M484 143L485 144L484 143M509 143L510 144L509 143z"/>
<path style="fill:#9e9e9e; stroke:none;" d="M510 143L511 144L510 143M534 143L535 144L534 143z"/>
<path style="fill:#355f4d; stroke:none;" d="M535 143L536 144L535 143M574 143L575 144L574 143z"/>
<path style="fill:#9e9e9e; stroke:none;" d="M575 143L576 144L575 143M594 143L595 144L594 143z"/>
<path style="fill:#355f4d; stroke:none;" d="M595 143L596 144L595 143M646 143L647 144L646 143z"/>
<path style="fill:#9e9e9e; stroke:none;" d="M647 143L648 144L647 143M670 143L671 144L670 143z"/>
<path style="fill:#355f4d; stroke:none;" d="M671 143L672 144L671 143M710 143L711 144L710 143z"/>
<path style="fill:#9e9e9e; stroke:none;" d="M711.667 143.333L712.333 143.667L711.667 143.333M736 143L737 144L736 143z"/>
<path style="fill:#355f4d; stroke:none;" d="M737 143L738 144L737 143z"/>
<path style="fill:#9e9e9e; stroke:none;" d="M752 143L752 184C752 188.653 750.514 196.436 752.603 200.682C754.531 204.599 771.469 204.599 773.397 200.682C777.199 192.955 774 176.614 774 168L773 168L773 202L753 202L753 162L752 143M779 143L780 144L779 143z"/>
<path style="fill:#355f4d; stroke:none;" d="M808.667 143.333L809.333 143.667L808.667 143.333z"/>
<path style="fill:#9e9e9e; stroke:none;" d="M810 143L811 144L810 143M837 143L838 144L837 143z"/>
<path style="fill:#355f4d; stroke:none;" d="M838 143L839 144L838 143z"/>
<path style="fill:#9e9e9e; stroke:none;" d="M859 143L860 144L859 143z"/>
<path style="fill:#355f4d; stroke:none;" d="M957 143L958 144L957 143z"/>
<path style="fill:#9e9e9e; stroke:none;" d="M958 143L959 144L958 143M983 143L984 144L983 143z"/>
<path style="fill:#355f4d; stroke:none;" d="M984 143L984 144L989 146L989 145L984 143M57 144L58 145L57 144M124 144L125 145L124 144M239 144L239 147L240 147L239 144M263 144L264 145L263 144M330 144L331 145L330 144M455 144L456 145L455 144z"/>
<path style="fill:#9e9e9e; stroke:none;" d="M456 144L457 145L456 144M485 144L486 145L485 144z"/>
<path style="fill:#355f4d; stroke:none;" d="M486 144L487 145L486 144M507 144L508 145L507 144z"/>
<path style="fill:#9e9e9e; stroke:none;" d="M508 144L509 145L508 144M536 144L537 145L536 144z"/>
<path style="fill:#355f4d; stroke:none;" d="M537 144L538 145L537 144z"/>
<path style="fill:#9e9e9e; stroke:none;" d="M573 144L574 145L573 144z"/>
<path style="fill:#355f4d; stroke:none;" d="M596 144L597 145L596 144M644 144L645 145L644 144z"/>
<path style="fill:#9e9e9e; stroke:none;" d="M645 144L646 145L645 144M672 144L674 146L672 144z"/>
<path style="fill:#355f4d; stroke:none;" d="M673 144L674 145L673 144M708 144L709 145L708 144z"/>
<path style="fill:#9e9e9e; stroke:none;" d="M709 144L710 145L709 144M738 144L739 145L738 144z"/>
<path style="fill:#355f4d; stroke:none;" d="M739 144L740 145L739 144M777 144L778 145L777 144z"/>
<path style="fill:#9e9e9e; stroke:none;" d="M778 144L779 145L778 144z"/>
<path style="fill:#355f4d; stroke:none;" d="M806 144L807 145L806 144z"/>
<path style="fill:#9e9e9e; stroke:none;" d="M807 144L808 145L807 144M839 144L840 145L839 144z"/>
<path style="fill:#355f4d; stroke:none;" d="M955 144L954 146L955 144z"/>
<path style="fill:#9e9e9e; stroke:none;" d="M956 144L957 145L956 144M985 144L986 145L985 144z"/>
<path style="fill:#355f4d; stroke:none;" d="M55 145L56 146L55 145M123 145L124 146L123 145M203.333 145.667L203.667 146.333L203.333 145.667M264 145L265 146L264 145M331 145L332 146L331 145M453 145L452 147L453 145z"/>
<path style="fill:#9e9e9e; stroke:none;" d="M454 145L455 146L454 145z"/>
<path style="fill:#355f4d; stroke:none;" d="M487 145L488 146L487 145z"/>
<path style="fill:#9e9e9e; stroke:none;" d="M506 145L507 146L506 145M538 145L540 147L538 145z"/>
<path style="fill:#355f4d; stroke:none;" d="M539 145L540 146L539 145M571 145L572 146L571 145z"/>
<path style="fill:#9e9e9e; stroke:none;" d="M572 145L573 146L572 145z"/>
<path style="fill:#355f4d; stroke:none;" d="M642 145L641 147L642 145z"/>
<path style="fill:#9e9e9e; stroke:none;" d="M643 145L644 146L643 145z"/>
<path style="fill:#355f4d; stroke:none;" d="M674 145L675 146L674 145M706 145L705 147L706 145z"/>
<path style="fill:#9e9e9e; stroke:none;" d="M707 145L708 146L707 145z"/>
<path style="fill:#355f4d; stroke:none;" d="M740 145L741 146L740 145M770 145L770 148L771 148L770 145M776 145L777 146L776 145M804 145L805 146L804 145z"/>
<path style="fill:#9e9e9e; stroke:none;" d="M805 145L806 146L805 145M840 145L841 146L840 145z"/>
<path style="fill:#355f4d; stroke:none;" d="M841 145L842 146L841 145z"/>
<path style="fill:#9e9e9e; stroke:none;" d="M955 145L956 146L955 145M987 145L988 146L987 145z"/>
<path style="fill:#355f4d; stroke:none;" d="M54 146L55 147L54 146z"/>
<path style="fill:#9e9e9e; stroke:none;" d="M453 146L454 147L453 146M488 146L488 149L489 149L488 146z"/>
<path style="fill:#355f4d; stroke:none;" d="M489 146L490 147L489 146M504 146L505 147L504 146z"/>
<path style="fill:#9e9e9e; stroke:none;" d="M505 146L506 147L505 146z"/>
<path style="fill:#355f4d; stroke:none;" d="M540 146L541 147L540 146M570 146L571 147L570 146z"/>
<path style="fill:#9e9e9e; stroke:none;" d="M642 146L643 147L642 146M675 146L676 147L675 146M706 146L707 147L706 146M741 146L742 147L741 146z"/>
<path style="fill:#355f4d; stroke:none;" d="M742 146L741 150L742 150L742 146M775 146L776 147L775 146M795.333 146.667L795.667 147.333L795.333 146.667M802 146L803 147L802 146z"/>
<path style="fill:#9e9e9e; stroke:none;" d="M803 146L804 147L803 146z"/>
<path style="fill:#355f4d; stroke:none;" d="M842 146L843 147L842 146M953 146L954 147L953 146z"/>
<path style="fill:#9e9e9e; stroke:none;" d="M989 146L990 147L989 146z"/>
<path style="fill:#355f4d; stroke:none;" d="M990 146L991 147L990 146M120 147L121 148L120 147M267 147L268 148L267 147M334 147L335 148L334 147M450 147L445 153L450 147z"/>
<path style="fill:#9e9e9e; stroke:none;" d="M451 147L452 148L451 147z"/>
<path style="fill:#355f4d; stroke:none;" d="M503 147L504 148L503 147M541 147L542 148L541 147z"/>
<path style="fill:#9e9e9e; stroke:none;" d="M569 147L570 148L569 147M640 147L641 148L640 147M676 147L677 148L676 147z"/>
<path style="fill:#355f4d; stroke:none;" d="M703 147L698 153L703 147z"/>
<path style="fill:#9e9e9e; stroke:none;" d="M704 147L705 148L704 147z"/>
<path style="fill:#355f4d; stroke:none;" d="M774 147L775 148L774 147M800 147L801 148L800 147z"/>
<path style="fill:#9e9e9e; stroke:none;" d="M801 147L802 148L801 147M843 147L844 148L843 147M952 147L953 148L952 147M991 147L993 149L991 147z"/>
<path style="fill:#355f4d; stroke:none;" d="M992 147L993 148L992 147M51 148L52 149L51 148M119 148L120 149L119 148M202 148L202 151L203 151L202 148M238.333 148.667L238.667 149.333L238.333 148.667M268 148L269 149L268 148M335 148L336 149L335 148z"/>
<path style="fill:#9e9e9e; stroke:none;" d="M450 148L451 149L450 148z"/>
<path style="fill:#355f4d; stroke:none;" d="M489 148L490 149L489 148z"/>
<path style="fill:#9e9e9e; stroke:none;" d="M502 148L503 149L502 148M542 148L543 149L542 148M568 148L569 149L568 148z"/>
<path style="fill:#355f4d; stroke:none;" d="M638 148L637 150L638 148z"/>
<path style="fill:#9e9e9e; stroke:none;" d="M639 148L640 149L639 148M677 148L678 149L677 148M703 148L704 149L703 148M741 148L742 149L741 148M770 148L770 152L773 151L773 150L770 148z"/>
<path style="fill:#355f4d; stroke:none;" d="M773 148L774 149L773 148z"/>
<path style="fill:#9e9e9e; stroke:none;" d="M794 148L794 151L795 151L794 148z"/>
<path style="fill:#355f4d; stroke:none;" d="M798 148L799 149L798 148z"/>
<path style="fill:#9e9e9e; stroke:none;" d="M799 148L800 149L799 148M844 148L845 149L844 148z"/>
<path style="fill:#355f4d; stroke:none;" d="M951 148L952 149L951 148M993.333 148.667L993.667 149.333L993.333 148.667M117 149L118 150L117 149M270 149L271 150L270 149M337 149L338 150L337 149z"/>
<path style="fill:#9e9e9e; stroke:none;" d="M449 149L450 150L449 149z"/>
<path style="fill:#355f4d; stroke:none;" d="M488 149L489 150L488 149z"/>
<path style="fill:#9e9e9e; stroke:none;" d="M501 149L502 150L501 149M543 149L544 150L543 149z"/>
<path style="fill:#355f4d; stroke:none;" d="M567 149L568 150L567 149z"/>
<path style="fill:#9e9e9e; stroke:none;" d="M638 149L639 150L638 149M678 149L679 150L678 149M702 149L703 150L702 149M740.333 149.667L740.667 150.333L740.333 149.667M773 149L774 150L773 149M798 149L799 150L798 149z"/>
<path style="fill:#355f4d; stroke:none;" d="M845 149L846 150L845 149M950 149L949 151L950 149M48 150L49 151L48 150M116 150L117 151L116 150M271 150L272 151L271 150M338 150L339 151L338 150z"/>
<path style="fill:#9e9e9e; stroke:none;" d="M448 150L449 151L448 150M487 150L488 151L487 150M500 150L501 151L500 150M544 150L545 151L544 150z"/>
<path style="fill:#355f4d; stroke:none;" d="M566 150L567 151L566 150z"/>
<path style="fill:#9e9e9e; stroke:none;" d="M637 150L638 151L637 150z"/>
<path style="fill:#355f4d; stroke:none;" d="M679 150L681 152L679 150z"/>
<path style="fill:#9e9e9e; stroke:none;" d="M701 150L702 151L701 150z"/>
<path style="fill:#355f4d; stroke:none;" d="M771 150L772 151L771 150z"/>
<path style="fill:#9e9e9e; stroke:none;" d="M799 150L800 151L799 150M845 150L846 151L845 150M950 150L951 151L950 150M992 150L993 151L992 150z"/>
<path style="fill:#355f4d; stroke:none;" d="M47 151L48 152L47 151M114 151L115 152L114 151M237 151L237 154L238 154L237 151M273 151L274 152L273 151M340 151L341 152L340 151z"/>
<path style="fill:#9e9e9e; stroke:none;" d="M447 151L448 152L447 151M486 151L485 153L486 151z"/>
<path style="fill:#355f4d; stroke:none;" d="M499 151L500 152L499 151M545 151L546 152L545 151z"/>
<path style="fill:#9e9e9e; stroke:none;" d="M566 151L567 152L566 151M636 151L637 152L636 151M679 151L680 152L679 151M700 151L701 152L700 151M739 151L738 153L739 151z"/>
<path style="fill:#355f4d; stroke:none;" d="M794.333 151.667L794.667 152.333L794.333 151.667M799 151L800 152L799 151z"/>
<path style="fill:#9e9e9e; stroke:none;" d="M846 151L847 152L846 151M949 151L948 155L949 155L949 151M991 151L990 153L991 151z"/>
<path style="fill:#355f4d; stroke:none;" d="M45 152L46 153L45 152M113 152L114 153L113 152M201.333 152.667L201.667 153.333L201.333 152.667M274 152L275 153L274 152M341 152L342 153L341 152z"/>
<path style="fill:#9e9e9e; stroke:none;" d="M446 152L447 153L446 152z"/>
<path style="fill:#355f4d; stroke:none;" d="M486 152L487 153L486 152M498 152L497 154L498 152M546 152L548 154L546 152z"/>
<path style="fill:#9e9e9e; stroke:none;" d="M565 152L566 153L565 152z"/>
<path style="fill:#355f4d; stroke:none;" d="M635 152L634 154L635 152z"/>
<path style="fill:#9e9e9e; stroke:none;" d="M680 152L682 158L683 158L680 152M699 152L700 153L699 152z"/>
<path style="fill:#355f4d; stroke:none;" d="M739 152L740 153L739 152z"/>
<path style="fill:#9e9e9e; stroke:none;" d="M800 152L801 153L800 152z"/>
<path style="fill:#355f4d; stroke:none;" d="M847 152L848 153L847 152M948 152L949 153L948 152M991 152L992 153L991 152M44 153L45 154L44 153M276 153L277 154L276 153z"/>
<path style="fill:#9e9e9e; stroke:none;" d="M445 153L446 154L445 153z"/>
<path style="fill:#355f4d; stroke:none;" d="M485 153L486 154L485 153z"/>
<path style="fill:#9e9e9e; stroke:none;" d="M498 153L499 154L498 153M546 153L547 154L546 153z"/>
<path style="fill:#355f4d; stroke:none;" d="M564 153L565 154L564 153z"/>
<path style="fill:#9e9e9e; stroke:none;" d="M635 153L636 154L635 153z"/>
<path style="fill:#355f4d; stroke:none;" d="M681 153L682 154L681 153z"/>
<path style="fill:#9e9e9e; stroke:none;" d="M698 153L699 154L698 153z"/>
<path style="fill:#355f4d; stroke:none;" d="M738 153L739 154L738 153M800 153L801 154L800 153z"/>
<path style="fill:#9e9e9e; stroke:none;" d="M847.333 153.667L847.667 154.333L847.333 153.667z"/>
<path style="fill:#355f4d; stroke:none;" d="M990 153L991 154L990 153M42 154L43 155L42 154M110 154L111 155L110 154M277 154L278 155L277 154M344 154L345 155L344 154M444 154L443 156L444 154z"/>
<path style="fill:#9e9e9e; stroke:none;" d="M484 154L482 157L484 154M497 154L498 155L497 154M547 154L548 155L547 154M564 154L565 155L564 154M634 154L635 155L634 154z"/>
<path style="fill:#355f4d; stroke:none;" d="M697 154L696 156L697 154z"/>
<path style="fill:#9e9e9e; stroke:none;" d="M737 154L738 155L737 154M793.333 154.667L793.667 155.333L793.333 154.667M801 154L802 155L801 154z"/>
<path style="fill:#355f4d; stroke:none;" d="M947 154L947 157L948 157L947 154z"/>
<path style="fill:#9e9e9e; stroke:none;" d="M989 154L990 155L989 154z"/>
<path style="fill:#355f4d; stroke:none;" d="M41 155L42 156L41 155M109 155L110 156L109 155M200 155L200 158L201 158L200 155M236.333 155.667L236.667 156.333L236.333 155.667M345 155L346 156L345 155z"/>
<path style="fill:#9e9e9e; stroke:none;" d="M444 155L445 156L444 155z"/>
<path style="fill:#355f4d; stroke:none;" d="M484 155L485 156L484 155M496 155L494 160L495 160L496 155M548 155L549 156L548 155M563 155L564 156L563 155M633 155L632 158L633 158L633 155M682 155L683 156L682 155z"/>
<path style="fill:#9e9e9e; stroke:none;" d="M697 155L698 156L697 155M736 155L735 157L736 155z"/>
<path style="fill:#355f4d; stroke:none;" d="M801 155L802 156L801 155M848 155L849 156L848 155z"/>
<path style="fill:#9e9e9e; stroke:none;" d="M988 155L987 157L988 155z"/>
<path style="fill:#355f4d; stroke:none;" d="M107 156L108 157L107 156M280 156L281 157L280 156M347 156L348 157L347 156z"/>
<path style="fill:#9e9e9e; stroke:none;" d="M443 156L442 160L443 160L443 156z"/>
<path style="fill:#355f4d; stroke:none;" d="M483 156L484 157L483 156z"/>
<path style="fill:#9e9e9e; stroke:none;" d="M496 156L497 157L496 156M548 156L549 157L548 156M563 156L564 157L563 156M633 156L634 157L633 156M657 156L657 157L661 157L657 156M696 156L697 157L696 156z"/>
<path style="fill:#355f4d; stroke:none;" d="M736 156L737 157L736 156M793.333 156.667L793.667 157.333L793.333 156.667z"/>
<path style="fill:#9e9e9e; stroke:none;" d="M802 156L803 157L802 156M848.333 156.667L848.667 157.333L848.333 156.667M967 157L967 158L976 157L967 157z"/>
<path style="fill:#355f4d; stroke:none;" d="M988 156L989 157L988 156M38 157L39 158L38 157M106 157L107 158L106 157M281 157L282 158L281 157M348 157L349 158L348 157M442 157L443 158L442 157z"/>
<path style="fill:#9e9e9e; stroke:none;" d="M471 157L471 158L475 158L471 157z"/>
<path style="fill:#355f4d; stroke:none;" d="M482 157L483 158L482 157z"/>
<path style="fill:#9e9e9e; stroke:none;" d="M516 161C521.175 158.414 523.825 158.414 529 161C524.908 156.363 520.092 156.363 516 161z"/>
<path style="fill:#355f4d; stroke:none;" d="M549 157L550 158L549 157M562 157L563 158L562 157z"/>
<path style="fill:#9e9e9e; stroke:none;" d="M650 163L651 163L656 158L650 163z"/>
<path style="fill:#355f4d; stroke:none;" d="M656 157L657 158L656 157z"/>
<path style="fill:#010101; stroke:none;" d="M651 164L666 164C663.639 155.224 653.935 155.814 651 164z"/>
<path style="fill:#355f4d; stroke:none;" d="M661 157L662 158L661 157z"/>
<path style="fill:#9e9e9e; stroke:none;" d="M662.667 157.333L663.333 157.667L662.667 157.333z"/>
<path style="fill:#355f4d; stroke:none;" d="M683.333 157.667L683.667 158.333L683.333 157.667M695 157L696 158L695 157z"/>
<path style="fill:#9e9e9e; stroke:none;" d="M724 157L724 158L728 158L724 157z"/>
<path style="fill:#355f4d; stroke:none;" d="M735 157L736 158L735 157M802 157L803 158L802 157z"/>
<path style="fill:#9e9e9e; stroke:none;" d="M817 157L817 158L828 160L817 157M947 157L947 164L948 164L947 157z"/>
<path style="fill:#355f4d; stroke:none;" d="M968 157L969 158L968 157M976 157L977 158L976 157z"/>
<path style="fill:#9e9e9e; stroke:none;" d="M977 157L977 158L982 160L982 159L977 157z"/>
<path style="fill:#355f4d; stroke:none;" d="M987 157L988 158L987 157M104 158L105 159L104 158M235.333 158.667L235.667 159.333L235.333 158.667M283 158L284 159L283 158M350 158L351 159L350 158z"/>
<path style="fill:#9e9e9e; stroke:none;" d="M468 158L469 159L468 158z"/>
<path style="fill:#355f4d; stroke:none;" d="M469.667 158.333L470.333 158.667L469.667 158.333M475 158L476 159L475 158z"/>
<path style="fill:#9e9e9e; stroke:none;" d="M476 158L476 159L479 160L476 158M481 158L480 160L481 158M495 158L496 159L495 158z"/>
<path style="fill:#355f4d; stroke:none;" d="M520 158L521 159L520 158z"/>
<path style="fill:#010101; stroke:none;" d="M521.018 158.851C510.991 161.675 512.597 189.949 524.892 185.758C533.617 182.784 532.153 155.715 521.018 158.851z"/>
<path style="fill:#355f4d; stroke:none;" d="M524 158L525 159L524 158z"/>
<path style="fill:#9e9e9e; stroke:none;" d="M549 158L550 159L549 158M562.333 158.667L562.667 159.333L562.333 158.667M587 158L588 159L587 158z"/>
<path style="fill:#355f4d; stroke:none;" d="M588 158L588 159L593 159L588 158z"/>
<path style="fill:#9e9e9e; stroke:none;" d="M593.667 158.333L594.333 158.667L593.667 158.333M632 158L633 159L632 158z"/>
<path style="fill:#355f4d; stroke:none;" d="M654 158L655 159L654 158z"/>
<path style="fill:#9e9e9e; stroke:none;" d="M664 158L665 159L664 158M695 158L694 162L695 162L695 158M721 158L722 159L721 158z"/>
<path style="fill:#355f4d; stroke:none;" d="M722.667 158.333L723.333 158.667L722.667 158.333M728 158L729 159L728 158z"/>
<path style="fill:#9e9e9e; stroke:none;" d="M729 158L729 159L732 160L729 158M734 158L733 160L734 158M803 158L804 159L803 158M814.667 158.333L815.333 158.667L814.667 158.333z"/>
<path style="fill:#355f4d; stroke:none;" d="M816 158L817 159L816 158M824 158L825 159L824 158M849 158L850 159L849 158z"/>
<path style="fill:#9e9e9e; stroke:none;" d="M859 158L859 159L867 159L859 158M887 202L867 202L867 203L886.397 201.972L888 191L888 159L904 159C900.67 157.603 890.611 156.342 888.028 159.603C885.954 162.221 887 167.878 887 171L887 202M926 158L926 159L939 159L926 158z"/>
<path style="fill:#355f4d; stroke:none;" d="M967 158L973 164L973 163L967 158M978 158L979 159L978 158z"/>
<path style="fill:#9e9e9e; stroke:none;" d="M986 158L983 160L983 161L986 158z"/>
<path style="fill:#355f4d; stroke:none;" d="M35 159L36 160L35 159M103 159L104 160L103 159M199.333 159.667L199.667 160.333L199.333 159.667M284 159L285 160L284 159M351 159L352 160L351 159M441 159L440 164L441 164L441 159z"/>
<path style="fill:#9e9e9e; stroke:none;" d="M466 159L467 160L466 159z"/>
<path style="fill:#355f4d; stroke:none;" d="M467 159L468 160L467 159M477 159L478 160L477 159M481 159L482 160L481 159M518 159L519 160L518 159M526 159L527 160L526 159M550 159L551 160L550 159z"/>
<path style="fill:#9e9e9e; stroke:none;" d="M585 159L584 161L585 159z"/>
<path style="fill:#355f4d; stroke:none;" d="M586 159L584 162L586 159z"/>
<path style="fill:#010101; stroke:none;" d="M587.109 160.028C577.323 165.508 582.725 192.767 594.682 184.821C600.345 181.058 599.979 152.82 587.109 160.028z"/>
<path style="fill:#355f4d; stroke:none;" d="M595 159L596 160L595 159z"/>
<path style="fill:#9e9e9e; stroke:none;" d="M596 159L597 160L596 159z"/>
<path style="fill:#355f4d; stroke:none;" d="M631 159L632 160L631 159z"/>
<path style="fill:#9e9e9e; stroke:none;" d="M665 159L666 160L665 159M683 159L683 162L684 162L683 159z"/>
<path style="fill:#355f4d; stroke:none;" d="M694 159L695 160L694 159z"/>
<path style="fill:#9e9e9e; stroke:none;" d="M719 159L720 160L719 159z"/>
<path style="fill:#355f4d; stroke:none;" d="M720 159L721 160L720 159M730 159L731 160L730 159M734 159L735 160L734 159z"/>
<path style="fill:#9e9e9e; stroke:none;" d="M782 159L782 160L785 160L782 159z"/>
<path style="fill:#355f4d; stroke:none;" d="M785 159L785 160L788 160L785 159z"/>
<path style="fill:#9e9e9e; stroke:none;" d="M788 159L788 160L793 160L788 159z"/>
<path style="fill:#355f4d; stroke:none;" d="M803 159L804 160L803 159z"/>
<path style="fill:#9e9e9e; stroke:none;" d="M811.667 159.333L812.333 159.667L811.667 159.333z"/>
<path style="fill:#355f4d; stroke:none;" d="M813 159L814 160L813 159M826 159L827 160L826 159z"/>
<path style="fill:#9e9e9e; stroke:none;" d="M849 159L849 164L850 164L849 159z"/>
<path style="fill:#355f4d; stroke:none;" d="M866 159L866 203L867 203C867 190.52 870.81 170.463 866 159M888 159L888 202L889 202C889 189.781 892.711 170.225 888 159z"/>
<path style="fill:#9e9e9e; stroke:none;" d="M904 159L904 181L905 181L904 159M925 159L927 186L928 186L925 159z"/>
<path style="fill:#355f4d; stroke:none;" d="M946 159L946 162L947 162L946 159z"/>
<path style="fill:#9e9e9e; stroke:none;" d="M966 159L967 160L966 159z"/>
<path style="fill:#355f4d; stroke:none;" d="M980 159L981 160L980 159M986 159L987 160L986 159M34 160L35 161L34 160M101 160L102 161L101 160M286 160L287 161L286 160M353 160L354 161L353 160z"/>
<path style="fill:#9e9e9e; stroke:none;" d="M465 160L466 161L465 160z"/>
<path style="fill:#355f4d; stroke:none;" d="M479.667 160.333L480.333 160.667L479.667 160.333z"/>
<path style="fill:#9e9e9e; stroke:none;" d="M494.333 160.667L494.667 161.333L494.333 160.667z"/>
<path style="fill:#355f4d; stroke:none;" d="M517 160L518 161L517 160M527 160L528 161L527 160z"/>
<path style="fill:#9e9e9e; stroke:none;" d="M550.333 160.667L550.667 161.333L550.333 160.667z"/>
<path style="fill:#355f4d; stroke:none;" d="M561 160L562 161L561 160z"/>
<path style="fill:#9e9e9e; stroke:none;" d="M597 160L598 161L597 160M631.333 160.667L631.667 161.333L631.333 160.667z"/>
<path style="fill:#355f4d; stroke:none;" d="M665.333 160.667L665.667 161.333L665.333 160.667M684 160L684 164L685 164L684 160z"/>
<path style="fill:#9e9e9e; stroke:none;" d="M718 160L719 161L718 160z"/>
<path style="fill:#355f4d; stroke:none;" d="M731 160L731 161L734 161L731 160z"/>
<path style="fill:#9e9e9e; stroke:none;" d="M780 160L781 161L780 160z"/>
<path style="fill:#355f4d; stroke:none;" d="M781 160L782 161L781 160M791.667 160.333L792.333 160.667L791.667 160.333z"/>
<path style="fill:#9e9e9e; stroke:none;" d="M804 160L806 162L804 160M809 160L810 161L809 160z"/>
<path style="fill:#355f4d; stroke:none;" d="M810 160L811 161L810 160M827 160L828 161L827 160M982 160L983 161L982 160M985 160L986 161L985 160M32 161L33 162L32 161M100 161L101 162L100 161M287 161L288 162L287 161M354 161L355 162L354 161z"/>
<path style="fill:#9e9e9e; stroke:none;" d="M441 161L442 162L441 161M464 161L463 163L464 161z"/>
<path style="fill:#355f4d; stroke:none;" d="M493.333 161.667L493.667 162.333L493.333 161.667M516 161L517 162L516 161M528 161L529 162L528 161z"/>
<path style="fill:#9e9e9e; stroke:none;" d="M561.333 161.667L561.667 162.333L561.333 161.667z"/>
<path style="fill:#355f4d; stroke:none;" d="M597 161L597 183L598 183L597 161M630.333 161.667L630.667 162.333L630.333 161.667M651 161L652 162L651 161z"/>
<path style="fill:#9e9e9e; stroke:none;" d="M666.333 161.667L666.667 162.333L666.333 161.667z"/>
<path style="fill:#355f4d; stroke:none;" d="M693.333 161.667L693.667 162.333L693.333 161.667z"/>
<path style="fill:#9e9e9e; stroke:none;" d="M717 161L716 163L717 161M778 161L777 163L778 161z"/>
<path style="fill:#355f4d; stroke:none;" d="M779 161L780 162L779 161M804 161L805 162L804 161z"/>
<path style="fill:#9e9e9e; stroke:none;" d="M807 161L808 162L807 161z"/>
<path style="fill:#355f4d; stroke:none;" d="M808 161L809 162L808 161z"/>
<path style="fill:#9e9e9e; stroke:none;" d="M828 161L829 162L828 161M967 161L968 162L967 161z"/>
<path style="fill:#355f4d; stroke:none;" d="M983.667 161.333L984.333 161.667L983.667 161.333M31 162L32 163L31 162M198.333 162.667L198.667 163.333L198.333 162.667M234.333 162.667L234.667 163.333L234.333 162.667M289 162L290 163L289 162M464 162L465 163L464 162z"/>
<path style="fill:#9e9e9e; stroke:none;" d="M515 162L516 163L515 162M529.333 162.667L529.667 163.333L529.333 162.667z"/>
<path style="fill:#355f4d; stroke:none;" d="M551 162L552 163L551 162z"/>
<path style="fill:#9e9e9e; stroke:none;" d="M583 162L584 163L583 162z"/>
<path style="fill:#355f4d; stroke:none;" d="M717 162L718 163L717 162M778 162L779 163L778 162M805.667 162.333L806.333 162.667L805.667 162.333M828 162L824 163L824 164L828 162z"/>
<path style="fill:#9e9e9e; stroke:none;" d="M968 162L969 163L968 162z"/>
<path style="fill:#355f4d; stroke:none;" d="M30 163L31 164L30 163M97 163L98 164L97 163M290 163L291 164L290 163M357 163L358 164L357 163M463 163L464 164L463 163z"/>
<path style="fill:#9e9e9e; stroke:none;" d="M493 163L493 166L494 166L493 163z"/>
<path style="fill:#355f4d; stroke:none;" d="M515.333 163.667L515.667 164.333L515.333 163.667z"/>
<path style="fill:#9e9e9e; stroke:none;" d="M551 163L551 166L552 166L551 163z"/>
<path style="fill:#355f4d; stroke:none;" d="M560 163L560 166L561 166L560 163M583 163L584 164L583 163z"/>
<path style="fill:#9e9e9e; stroke:none;" d="M630 163L630 166L631 166L630 163z"/>
<path style="fill:#355f4d; stroke:none;" d="M650 163C652.922 166.344 664.078 166.344 667 163L650 163z"/>
<path style="fill:#9e9e9e; stroke:none;" d="M693 163L693 167L694 167L693 163z"/>
<path style="fill:#355f4d; stroke:none;" d="M716 163L717 164L716 163z"/>
<path style="fill:#9e9e9e; stroke:none;" d="M776 163L775 165L776 163z"/>
<path style="fill:#355f4d; stroke:none;" d="M850 163L850 202L851 202C851 190.828 854.311 173.274 850 163z"/>
<path style="fill:#9e9e9e; stroke:none;" d="M970 163L971 164L970 163z"/>
<path style="fill:#355f4d; stroke:none;" d="M32 164L33 165L32 164M98 164L99 165L98 164M292 164L293 165L292 164M358 164L359 165L358 164z"/>
<path style="fill:#9e9e9e; stroke:none;" d="M440 164L440 167L441 167L440 164M462 164L463 165L462 164M514 164L514 168L515 168L514 164z"/>
<path style="fill:#355f4d; stroke:none;" d="M529 164L530 165L529 164z"/>
<path style="fill:#9e9e9e; stroke:none;" d="M582.333 164.667L582.667 165.333L582.333 164.667M649 164L650 165L649 164M684 164L684 176L685 176L684 164M715 164L716 165L715 164z"/>
<path style="fill:#355f4d; stroke:none;" d="M776 164L777 165L776 164M818 164L818 165L822 165L818 164z"/>
<path style="fill:#9e9e9e; stroke:none;" d="M822 164L822 165L825 165L822 164z"/>
<path style="fill:#355f4d; stroke:none;" d="M947.333 164.667L947.667 165.333L947.333 164.667z"/>
<path style="fill:#9e9e9e; stroke:none;" d="M973 164L974 165L973 164z"/>
<path style="fill:#355f4d; stroke:none;" d="M974.667 164.333L975.333 164.667L974.667 164.333M33 165L34 166L33 165M99 165L100 166L99 165M233.333 165.667L233.667 166.333L233.333 165.667M293 165L294 166L293 165M360.333 165.667L360.667 166.333L360.333 165.667M439 165L439 170L440 170L439 165M462.333 165.667L462.667 166.333L462.333 165.667M492 165L492 169L493 169L492 165z"/>
<path style="fill:#9e9e9e; stroke:none;" d="M530 165L530 168L531 168L530 165M650 165L650 166L667 166L650 165z"/>
<path style="fill:#355f4d; stroke:none;" d="M692 165L692 170L693 170L692 165M715.333 165.667L715.667 166.333L715.333 165.667M775 165L776 166L775 165M814 165L814 166L817 166L814 165z"/>
<path style="fill:#9e9e9e; stroke:none;" d="M817.667 165.333L818.333 165.667L817.667 165.333M948.333 165.667L948.667 166.333L948.333 165.667M975.667 165.333L976.333 165.667L975.667 165.333z"/>
<path style="fill:#355f4d; stroke:none;" d="M977 165L977 166L981 167L981 166L977 165M34 166L35 167L34 166M101 166L102 167L101 166M197.333 166.667L197.667 167.333L197.333 166.667M294 166L295 167L294 166z"/>
<path style="fill:#9e9e9e; stroke:none;" d="M461 166L461 169L462 169L461 166z"/>
<path style="fill:#355f4d; stroke:none;" d="M552 166L552 170L553 170L552 166z"/>
<path style="fill:#9e9e9e; stroke:none;" d="M560 166L560 180L561 180L560 166z"/>
<path style="fill:#355f4d; stroke:none;" d="M582.333 166.667L582.667 167.333L582.333 166.667M629 166L629 169L630 169L629 166z"/>
<path style="fill:#9e9e9e; stroke:none;" d="M714 166L714 169L715 169L714 166M774 166L775 167L774 166z"/>
<path style="fill:#355f4d; stroke:none;" d="M811.667 166.333L812.333 166.667L811.667 166.333z"/>
<path style="fill:#9e9e9e; stroke:none;" d="M813.667 166.333L814.333 166.667L813.667 166.333M978 166L979 167L978 166z"/>
<path style="fill:#355f4d; stroke:none;" d="M36 167L37 168L36 167M102 167L103 168L102 167M293 167L294 168L293 167M358 167L359 168L358 167M685 167L685 174L686 174L685 167M774 167L775 168L774 167M809 167L810 168L809 167z"/>
<path style="fill:#9e9e9e; stroke:none;" d="M810.667 167.333L811.333 167.667L810.667 167.333z"/>
<path style="fill:#355f4d; stroke:none;" d="M948 167L950 170L948 167z"/>
<path style="fill:#9e9e9e; stroke:none;" d="M981 167L981 168L985 170L985 169L981 167z"/>
<path style="fill:#355f4d; stroke:none;" d="M982 167L983 168L982 167M37 168L38 169L37 168M232 168L232 171L233 171L232 168M357 168L358 169L357 168M514 168L514 177L515 177L514 168M530 168L530 177L531 177L530 168M807 168L808 169L807 168z"/>
<path style="fill:#9e9e9e; stroke:none;" d="M808 168L809 169L808 168M949 168L950 169L949 168z"/>
<path style="fill:#355f4d; stroke:none;" d="M984 168L985 169L984 168M39 169L40 170L39 169M105 169L106 170L105 169M196.333 169.667L196.667 170.333L196.333 169.667M290 169L291 170L290 169M355 169L356 170L355 169M461 169L461 176L462 176L461 169z"/>
<path style="fill:#9e9e9e; stroke:none;" d="M492 169L492 176L493 176L492 169M629 169L629 176L630 176L629 169z"/>
<path style="fill:#355f4d; stroke:none;" d="M714 169L714 177L715 177L714 169M805 169L806 170L805 169z"/>
<path style="fill:#9e9e9e; stroke:none;" d="M806 169L807 170L806 169M950.333 169.667L950.667 170.333L950.333 169.667z"/>
<path style="fill:#355f4d; stroke:none;" d="M985 169L986 170L985 169M40 170L41 171L40 170M106 170L107 171L106 170M289 170L290 171L289 170M354 170L355 171L354 170z"/>
<path style="fill:#9e9e9e; stroke:none;" d="M439 170L439 175L440 175L439 170M552 170L552 175L553 175L552 170M581 170L581 175L582 175L581 170M692 170L692 175L693 175L692 170z"/>
<path style="fill:#355f4d; stroke:none;" d="M803 170L799 175L803 170z"/>
<path style="fill:#9e9e9e; stroke:none;" d="M804 170L805 171L804 170M986 170L991 175L986 170z"/>
<path style="fill:#355f4d; stroke:none;" d="M987 170L988 171L987 170M41 171L42 172L41 171M108 171L109 172L108 171M287 171L288 172L287 171M353 171L354 172L353 171z"/>
<path style="fill:#9e9e9e; stroke:none;" d="M803 171L804 172L803 171M951 171L952 172L951 171z"/>
<path style="fill:#355f4d; stroke:none;" d="M988 171L989 172L988 171M43 172L44 173L43 172M109 172L110 173L109 172M195 172L195 175L196 175L195 172M231.333 172.667L231.667 173.333L231.333 172.667M286 172L287 173L286 172M351 172L352 173L351 172z"/>
<path style="fill:#9e9e9e; stroke:none;" d="M460 172L461 173L460 172M713 172L714 173L713 172M802 172L803 173L802 172M952 172L953 173L952 172z"/>
<path style="fill:#355f4d; stroke:none;" d="M989 172L990 173L989 172M44 173L45 174L44 173M284 173L285 174L284 173M350 173L351 174L350 173z"/>
<path style="fill:#9e9e9e; stroke:none;" d="M801 173L802 174L801 173M953 173L954 174L953 173z"/>
<path style="fill:#355f4d; stroke:none;" d="M990 173L991 174L990 173M46 174L47 175L46 174M112 174L113 175L112 174M283 174L284 175L283 174M348 174L349 175L348 174z"/>
<path style="fill:#9e9e9e; stroke:none;" d="M800 174L801 175L800 174z"/>
<path style="fill:#355f4d; stroke:none;" d="M954 174L956 176L954 174z"/>
<path style="fill:#9e9e9e; stroke:none;" d="M955 174L956 175L955 174z"/>
<path style="fill:#355f4d; stroke:none;" d="M47 175L48 176L47 175M113 175L114 176L113 175M230 175L230 178L231 178L230 175M347 175L348 176L347 175M439 175L439 181L440 181L439 175M552 175L552 179L553 179L552 175M692 175L692 181L693 181L692 175z"/>
<path style="fill:#9e9e9e; stroke:none;" d="M799 175L800 176L799 175M956 175L956 176L959 177L956 175z"/>
<path style="fill:#355f4d; stroke:none;" d="M991 175L992 176L991 175M48 176L49 177L48 176M115 176L116 177L115 176M194.333 176.667L194.667 177.333L194.333 176.667M280 176L281 177L280 176z"/>
<path style="fill:#9e9e9e; stroke:none;" d="M461 176L461 179L462 179L461 176z"/>
<path style="fill:#355f4d; stroke:none;" d="M492 176L492 180L493 180L492 176M629 176L629 179L630 179L629 176M684 176L684 179L685 179L684 176M798 176L799 177L798 176z"/>
<path style="fill:#9e9e9e; stroke:none;" d="M824 176L824 177L828 177L824 176z"/>
<path style="fill:#355f4d; stroke:none;" d="M828 176L829 177L828 176M957 176L958 177L957 176z"/>
<path style="fill:#9e9e9e; stroke:none;" d="M991 176L992 177L991 176z"/>
<path style="fill:#355f4d; stroke:none;" d="M50 177L51 178L50 177M116 177L117 178L116 177M344 177L345 178L344 177z"/>
<path style="fill:#9e9e9e; stroke:none;" d="M514 177L514 181L515 181L514 177M530 177L530 180L531 180L530 177z"/>
<path style="fill:#355f4d; stroke:none;" d="M582.333 177.667L582.667 178.333L582.333 177.667z"/>
<path style="fill:#9e9e9e; stroke:none;" d="M714.333 177.667L714.667 178.333L714.333 177.667M798 177L799 178L798 177M820 179L823 178L820 179z"/>
<path style="fill:#355f4d; stroke:none;" d="M823.667 177.333L824.333 177.667L823.667 177.333z"/>
<path style="fill:#010101; stroke:none;" d="M829 177C827.278 177.151 825.636 177.264 823.976 177.804C809.41 182.547 828.797 194.214 829 177z"/>
<path style="fill:#355f4d; stroke:none;" d="M959 177L960 178L959 177z"/>
<path style="fill:#9e9e9e; stroke:none;" d="M960 177L960 178L964 179L964 178L960 177z"/>
<path style="fill:#355f4d; stroke:none;" d="M992 177L993 178L992 177M51 178L52 179L51 178M277 178L278 179L277 178M343 178L344 179L343 178M462 178L464 183L465 183L462 178z"/>
<path style="fill:#9e9e9e; stroke:none;" d="M650 178L650 179L684 179L650 178z"/>
<path style="fill:#355f4d; stroke:none;" d="M715.333 178.667L715.667 179.333L715.333 178.667M797 178L798 179L797 178M821 178L822 179L821 178M961 178L962 179L961 178z"/>
<path style="fill:#9e9e9e; stroke:none;" d="M992.333 178.667L992.667 179.333L992.333 178.667z"/>
<path style="fill:#355f4d; stroke:none;" d="M53 179L54 180L53 179M119 179L120 180L119 179M193 179L193 182L194 182L193 179M229.333 179.667L229.667 180.333L229.333 179.667M276 179L277 180L276 179M341 179L342 180L341 179z"/>
<path style="fill:#9e9e9e; stroke:none;" d="M440 179L440 182L441 182L440 179M493 179L493 182L494 182L493 179M551 179L551 182L552 182L551 179M582.333 179.667L582.667 180.333L582.333 179.667z"/>
<path style="fill:#355f4d; stroke:none;" d="M650 179L650 180L683 180L650 179z"/>
<path style="fill:#9e9e9e; stroke:none;" d="M693 179L693 182L694 182L693 179M797 179L798 180L797 179M818 179L817 181L818 179z"/>
<path style="fill:#355f4d; stroke:none;" d="M819 179L820 180L819 179M963.667 179.333L964.333 179.667L963.667 179.333z"/>
<path style="fill:#9e9e9e; stroke:none;" d="M965 179L965 180L969 181L969 180L965 179z"/>
<path style="fill:#355f4d; stroke:none;" d="M993 179L993 189L994 189L993 179M54 180L55 181L54 180M120 180L121 181L120 180M274 180L275 181L274 180M340 180L341 181L340 180z"/>
<path style="fill:#9e9e9e; stroke:none;" d="M462 180L463 181L462 180z"/>
<path style="fill:#355f4d; stroke:none;" d="M515.333 180.667L515.667 181.333L515.333 180.667M529 180L530 181L529 180M560.333 180.667L560.667 181.333L560.333 180.667z"/>
<path style="fill:#9e9e9e; stroke:none;" d="M630.333 180.667L630.667 181.333L630.333 180.667M650 180L654 186L650 180M715 180L716 181L715 180z"/>
<path style="fill:#355f4d; stroke:none;" d="M796.333 180.667L796.667 181.333L796.333 180.667M818 180L819 181L818 180M926 180L926 183L927 183L926 180M966 180L967 181L966 180M122 181L123 182L122 181M273 181L274 182L273 181M338 181L339 182L338 181z"/>
<path style="fill:#9e9e9e; stroke:none;" d="M529.333 181.667L529.667 182.333L529.333 181.667z"/>
<path style="fill:#355f4d; stroke:none;" d="M583 181L584 182L583 181M651 181L652 182L651 181M716 181L718 183L716 181M817 181L818 182L817 181M904 181L904 187L905 187L904 181M968.667 181.333L969.333 181.667L968.667 181.333z"/>
<path style="fill:#9e9e9e; stroke:none;" d="M970 181L971 182L970 181z"/>
<path style="fill:#355f4d; stroke:none;" d="M57 182L58 183L57 182M123 182L124 183L123 182M228 182L228 185L229 185L228 182M271 182L272 183L271 182M337 182L338 183L337 182M440.333 182.667L440.667 183.333L440.333 182.667z"/>
<path style="fill:#9e9e9e; stroke:none;" d="M463 182L464 183L463 182z"/>
<path style="fill:#355f4d; stroke:none;" d="M493.333 182.667L493.667 183.333L493.333 182.667z"/>
<path style="fill:#9e9e9e; stroke:none;" d="M515 182L516 183L515 182z"/>
<path style="fill:#355f4d; stroke:none;" d="M551 182L552 183L551 182z"/>
<path style="fill:#9e9e9e; stroke:none;" d="M561 182L561 185L562 185L561 182M583 182L584 183L583 182z"/>
<path style="fill:#355f4d; stroke:none;" d="M630.333 182.667L630.667 183.333L630.333 182.667M693.333 182.667L693.667 183.333L693.333 182.667z"/>
<path style="fill:#9e9e9e; stroke:none;" d="M716 182L717 183L716 182M796 182L796 189L797 189L796 182M816 182L816 185L817 185L816 182z"/>
<path style="fill:#355f4d; stroke:none;" d="M953 182L954 183L953 182M971 182L973 184L971 182z"/>
<path style="fill:#9e9e9e; stroke:none;" d="M972 182L973 183L972 182z"/>
<path style="fill:#355f4d; stroke:none;" d="M58 183L59 184L58 183M125 183L126 184L125 183M192.333 183.667L192.667 184.333L192.333 183.667M270 183L271 184L270 183M336 183L337 184L336 183z"/>
<path style="fill:#9e9e9e; stroke:none;" d="M441.333 183.667L441.667 184.333L441.333 183.667M464 183L465 184L464 183z"/>
<path style="fill:#355f4d; stroke:none;" d="M481 183L481 184L484 187L485 187L481 183z"/>
<path style="fill:#9e9e9e; stroke:none;" d="M494.333 183.667L494.667 184.333L494.333 183.667z"/>
<path style="fill:#355f4d; stroke:none;" d="M516 183L522 187L522 186L516 183M528 183L529 184L528 183z"/>
<path style="fill:#9e9e9e; stroke:none;" d="M550.333 183.667L550.667 184.333L550.333 183.667z"/>
<path style="fill:#355f4d; stroke:none;" d="M584 183L587 186L584 183z"/>
<path style="fill:#9e9e9e; stroke:none;" d="M597 183L598 184L597 183z"/>
<path style="fill:#355f4d; stroke:none;" d="M652 183L653 184L652 183z"/>
<path style="fill:#9e9e9e; stroke:none;" d="M694.333 183.667L694.667 184.333L694.333 183.667M717 183L718 184L717 183z"/>
<path style="fill:#355f4d; stroke:none;" d="M734 183L734 184L737 187L738 187L734 183z"/>
<path style="fill:#9e9e9e; stroke:none;" d="M952 183L952 184L956 185L956 184L952 183z"/>
<path style="fill:#355f4d; stroke:none;" d="M955 183L956 184L955 183z"/>
<path style="fill:#9e9e9e; stroke:none;" d="M973 183L973 187L974 187L973 183z"/>
<path style="fill:#355f4d; stroke:none;" d="M60 184L61 185L60 184M126 184L127 185L126 184M334 184L335 185L334 184z"/>
<path style="fill:#9e9e9e; stroke:none;" d="M465 184L467 186L465 184z"/>
<path style="fill:#355f4d; stroke:none;" d="M466 184L467 185L466 184M479 184L480 185L479 184z"/>
<path style="fill:#9e9e9e; stroke:none;" d="M480 184L481 185L480 184M482 184L483 185L482 184M516 184L517 185L516 184M528 184L529 185L528 184M584 184L585 185L584 184z"/>
<path style="fill:#355f4d; stroke:none;" d="M596 184L597 185L596 184z"/>
<path style="fill:#9e9e9e; stroke:none;" d="M631 184L632 185L631 184z"/>
<path style="fill:#355f4d; stroke:none;" d="M653 184L654 185L653 184M670 186L670 187L676 185L670 186z"/>
<path style="fill:#9e9e9e; stroke:none;" d="M718 184L719 185L718 184z"/>
<path style="fill:#355f4d; stroke:none;" d="M732 184L733 185L732 184z"/>
<path style="fill:#9e9e9e; stroke:none;" d="M733 184L734 185L733 184M735 184L736 185L735 184z"/>
<path style="fill:#355f4d; stroke:none;" d="M828 184L829 185L828 184M927 184L928 185L927 184M951 184L950 186L951 184M956 184L957 185L956 184M61 185L62 186L61 185M127 185L128 186L127 185M267 185L268 186L267 185M333 185L334 186L333 185M441.333 185.667L441.667 186.333L441.333 185.667M467 185L468 186L467 185M477 185L478 186L477 185z"/>
<path style="fill:#9e9e9e; stroke:none;" d="M478.667 185.333L479.333 185.667L478.667 185.333z"/>
<path style="fill:#355f4d; stroke:none;" d="M494.333 185.667L494.667 186.333L494.333 185.667z"/>
<path style="fill:#9e9e9e; stroke:none;" d="M517 185L518 186L517 185z"/>
<path style="fill:#355f4d; stroke:none;" d="M526 185L523 186L523 187L527 186L526 185z"/>
<path style="fill:#9e9e9e; stroke:none;" d="M527 185L528 186L527 185z"/>
<path style="fill:#355f4d; stroke:none;" d="M550 185L551 186L550 185M561 185L562 186L561 185z"/>
<path style="fill:#9e9e9e; stroke:none;" d="M585 185L586 186L585 185z"/>
<path style="fill:#355f4d; stroke:none;" d="M594 185L588 186L588 187L595 186L594 185z"/>
<path style="fill:#9e9e9e; stroke:none;" d="M595 185L596 186L595 185z"/>
<path style="fill:#355f4d; stroke:none;" d="M631.333 185.667L631.667 186.333L631.333 185.667M654 185L655 186L654 185z"/>
<path style="fill:#9e9e9e; stroke:none;" d="M674 185L674 186L678 190L679 190L674 185z"/>
<path style="fill:#355f4d; stroke:none;" d="M694.333 185.667L694.667 186.333L694.333 185.667z"/>
<path style="fill:#9e9e9e; stroke:none;" d="M719 185L722 187L722 186L719 185z"/>
<path style="fill:#355f4d; stroke:none;" d="M720 185L721 186L720 185M730 185L731 186L730 185z"/>
<path style="fill:#9e9e9e; stroke:none;" d="M731 185L732 186L731 185z"/>
<path style="fill:#355f4d; stroke:none;" d="M827 185L828 186L827 185z"/>
<path style="fill:#9e9e9e; stroke:none;" d="M905 185L905 188L906 188L905 185M951 185L952 186L951 185M957 185L960 187L960 186L957 185z"/>
<path style="fill:#355f4d; stroke:none;" d="M958 185L959 186L958 185M129 186L130 187L129 186M191 186L191 189L192 189L191 186M227.333 186.667L227.667 187.333L227.333 186.667M266 186L267 187L266 186M331 186L332 187L331 186z"/>
<path style="fill:#9e9e9e; stroke:none;" d="M442 186L444 191L445 191L442 186M468 186L469 187L468 186z"/>
<path style="fill:#355f4d; stroke:none;" d="M469 186L469 187L472 187L469 186M473 186L473 187L476 187L473 186z"/>
<path style="fill:#9e9e9e; stroke:none;" d="M476.667 186.333L477.333 186.667L476.667 186.333M483 186L484 187L483 186M495 186L497 189L495 186M518 186L519 187L518 186M526 186L527 187L526 186M549 186L550 187L549 186M562.333 186.667L562.667 187.333L562.333 186.667M587 186L588 187L587 186M594 186L595 187L594 186M632 186L634 191L635 191L632 186M655 186L656 187L655 186z"/>
<path style="fill:#355f4d; stroke:none;" d="M656 186L657 187L656 186z"/>
<path style="fill:#9e9e9e; stroke:none;" d="M672 186L673 187L672 186z"/>
<path style="fill:#355f4d; stroke:none;" d="M677 186L678 187L677 186z"/>
<path style="fill:#9e9e9e; stroke:none;" d="M695 186L697 191L698 191L695 186z"/>
<path style="fill:#355f4d; stroke:none;" d="M722 186L722 187L725 187L722 186M726 186L726 187L729 187L726 186z"/>
<path style="fill:#9e9e9e; stroke:none;" d="M729.667 186.333L730.333 186.667L729.667 186.333M736 186L737 187L736 186M817 186L818 187L817 186z"/>
<path style="fill:#355f4d; stroke:none;" d="M825 186L819 187L819 188L826 187L825 186z"/>
<path style="fill:#9e9e9e; stroke:none;" d="M826 186L827 187L826 186M928 186L931 188L931 187L928 186z"/>
<path style="fill:#355f4d; stroke:none;" d="M929 186L930 187L929 186M936 186L936 187L939 188L936 186z"/>
<path style="fill:#9e9e9e; stroke:none;" d="M950 186L951 187L950 186z"/>
<path style="fill:#355f4d; stroke:none;" d="M960 186L961 187L960 186M64 187L65 188L64 187M130 187L131 188L130 187M264 187L265 188L264 187M330 187L331 188L330 187z"/>
<path style="fill:#9e9e9e; stroke:none;" d="M470 187L470 188L475 188L470 187M484 187L485 188L484 187M520 187L520 188L525 188L520 187z"/>
<path style="fill:#355f4d; stroke:none;" d="M549 187L550 188L549 187z"/>
<path style="fill:#9e9e9e; stroke:none;" d="M590 187L591 188L590 187M657 187L658 188L657 187z"/>
<path style="fill:#355f4d; stroke:none;" d="M658 187L658 188L662 188L658 187M665 187L665 188L669 188L665 187z"/>
<path style="fill:#9e9e9e; stroke:none;" d="M669 187L670 188L669 187M723 187L723 188L728 188L723 187M737 187L738 188L737 187M818 187L819 188L818 187M825 187L826 188L825 187z"/>
<path style="fill:#355f4d; stroke:none;" d="M931 187L931 188L935 188L931 187z"/>
<path style="fill:#9e9e9e; stroke:none;" d="M935 187L935 188L938 188L935 187z"/>
<path style="fill:#355f4d; stroke:none;" d="M949 187L947 190L949 187z"/>
<path style="fill:#9e9e9e; stroke:none;" d="M961 187L962 188L961 187z"/>
<path style="fill:#355f4d; stroke:none;" d="M962.667 187.333L963.333 187.667L962.667 187.333z"/>
<path style="fill:#9e9e9e; stroke:none;" d="M972 187L973 188L972 187z"/>
<path style="fill:#355f4d; stroke:none;" d="M65 188L66 189L65 188M132 188L133 189L132 188M263 188L264 189L263 188M442 188L443 189L442 188M485 188L487 192L488 192L485 188M495 188L496 189L495 188z"/>
<path style="fill:#9e9e9e; stroke:none;" d="M548 188L549 189L548 188z"/>
<path style="fill:#355f4d; stroke:none;" d="M562 188L563 189L562 188M632 188L633 189L632 188z"/>
<path style="fill:#9e9e9e; stroke:none;" d="M660 188L660 189L666 189L660 188z"/>
<path style="fill:#355f4d; stroke:none;" d="M678 188L679 189L678 188M695 188L696 189L695 188M738 188L739 189L738 188z"/>
<path style="fill:#9e9e9e; stroke:none;" d="M821 188L822 189L821 188z"/>
<path style="fill:#355f4d; stroke:none;" d="M905.333 188.667L905.667 189.333L905.333 188.667z"/>
<path style="fill:#9e9e9e; stroke:none;" d="M938 188L938 191L939 191L938 188M949 188L950 189L949 188M963.667 188.333L964.333 188.667L963.667 188.333z"/>
<path style="fill:#355f4d; stroke:none;" d="M965 188L965 189L971 189L965 188z"/>
<path style="fill:#9e9e9e; stroke:none;" d="M971 188L972 189L971 188M992.333 188.667L992.667 189.333L992.333 188.667z"/>
<path style="fill:#355f4d; stroke:none;" d="M67 189L68 190L67 189M133 189L134 190L133 189M226 189L226 192L227 192L226 189M261 189L262 190L261 189M327 189L328 190L327 189z"/>
<path style="fill:#9e9e9e; stroke:none;" d="M485 189L486 190L485 189z"/>
<path style="fill:#355f4d; stroke:none;" d="M496 189L497 190L496 189M548 189L549 190L548 189z"/>
<path style="fill:#9e9e9e; stroke:none;" d="M563 189L564 190L563 189M738 189L739 190L738 189z"/>
<path style="fill:#355f4d; stroke:none;" d="M796.333 189.667L796.667 190.333L796.333 189.667z"/>
<path style="fill:#9e9e9e; stroke:none;" d="M906.333 189.667L906.667 190.333L906.333 189.667z"/>
<path style="fill:#355f4d; stroke:none;" d="M939 189L939 193L940 193L939 189z"/>
<path style="fill:#9e9e9e; stroke:none;" d="M948 189L949 190L948 189z"/>
<path style="fill:#355f4d; stroke:none;" d="M68 190L69 191L68 190M134 190L135 191L134 190M190.333 190.667L190.667 191.333L190.333 190.667M260 190L261 191L260 190M326 190L327 191L326 190M443 190L444 191L443 190z"/>
<path style="fill:#9e9e9e; stroke:none;" d="M497 190L499 192L497 190M547 190L546 192L547 190z"/>
<path style="fill:#355f4d; stroke:none;" d="M563 190L564 191L563 190M633 190L634 191L633 190M679 190L680 191L679 190M696 190L697 191L696 190M739 190L741 192L739 190z"/>
<path style="fill:#9e9e9e; stroke:none;" d="M947 190L948 191L947 190z"/>
<path style="fill:#355f4d; stroke:none;" d="M992 190L993 191L992 190M136 191L137 192L136 191M324 191L325 192L324 191M444 191L445 192L444 191z"/>
<path style="fill:#9e9e9e; stroke:none;" d="M486 191L487 192L486 191z"/>
<path style="fill:#355f4d; stroke:none;" d="M497 191L498 192L497 191M547 191L548 192L547 191z"/>
<path style="fill:#9e9e9e; stroke:none;" d="M564 191L565 192L564 191z"/>
<path style="fill:#355f4d; stroke:none;" d="M634 191L635 192L634 191z"/>
<path style="fill:#9e9e9e; stroke:none;" d="M679 191L680 192L679 191z"/>
<path style="fill:#355f4d; stroke:none;" d="M697 191L698 192L697 191z"/>
<path style="fill:#9e9e9e; stroke:none;" d="M739 191L740 192L739 191M797 191L798 192L797 191z"/>
<path style="fill:#355f4d; stroke:none;" d="M906.333 191.667L906.667 192.333L906.333 191.667M946 191L945 193L946 191z"/>
<path style="fill:#9e9e9e; stroke:none;" d="M991 191L992 192L991 191z"/>
<path style="fill:#355f4d; stroke:none;" d="M71 192L72 193L71 192M137 192L138 193L137 192M257 192L258 193L257 192M323 192L324 193L323 192z"/>
<path style="fill:#9e9e9e; stroke:none;" d="M445 192L446 193L445 192M487 192L488 193L487 192z"/>
<path style="fill:#355f4d; stroke:none;" d="M498 192L499 193L498 192M546 192L547 193L546 192M564 192L565 193L564 192z"/>
<path style="fill:#9e9e9e; stroke:none;" d="M635 192L641 198L635 192z"/>
<path style="fill:#355f4d; stroke:none;" d="M680 192L681 199L682 199L680 192z"/>
<path style="fill:#9e9e9e; stroke:none;" d="M698 192L705 199L698 192M740 192L742 195L740 192z"/>
<path style="fill:#355f4d; stroke:none;" d="M797.333 192.667L797.667 193.333L797.333 192.667z"/>
<path style="fill:#9e9e9e; stroke:none;" d="M907 192L909 195L907 192M946 192L947 193L946 192z"/>
<path style="fill:#355f4d; stroke:none;" d="M991 192L992 193L991 192M72 193L73 194L72 193M139 193L140 194L139 193M189 193L189 196L190 196L189 193M225.333 193.667L225.667 194.333L225.333 193.667M256 193L257 194L256 193M321 193L322 194L321 193z"/>
<path style="fill:#9e9e9e; stroke:none;" d="M446 193L451 198L446 193z"/>
<path style="fill:#355f4d; stroke:none;" d="M488 193L490 197L491 197L488 193z"/>
<path style="fill:#9e9e9e; stroke:none;" d="M499 193L500 194L499 193z"/>
<path style="fill:#355f4d; stroke:none;" d="M545 193L546 194L545 193z"/>
<path style="fill:#9e9e9e; stroke:none;" d="M565 193L567 195L565 193z"/>
<path style="fill:#355f4d; stroke:none;" d="M635 193L636 194L635 193z"/>
<path style="fill:#9e9e9e; stroke:none;" d="M680 193L681 194L680 193z"/>
<path style="fill:#355f4d; stroke:none;" d="M698 193L699 194L698 193M741 193L742 194L741 193z"/>
<path style="fill:#9e9e9e; stroke:none;" d="M798 193L800 196L798 193M939 193L939 196L940 196L939 193M945 193L946 194L945 193M990 193L991 194L990 193z"/>
<path style="fill:#355f4d; stroke:none;" d="M74 194L75 195L74 194M140 194L141 195L140 194M254 194L255 195L254 194M320 194L321 195L320 194M446 194L447 195L446 194z"/>
<path style="fill:#9e9e9e; stroke:none;" d="M488 194L489 195L488 194M500 194L503 197L500 194M544 194L545 195L544 194z"/>
<path style="fill:#355f4d; stroke:none;" d="M565 194L566 195L565 194M636 194L637 195L636 194M699 194L700 195L699 194M907 194L908 195L907 194M940 194L940 197L941 197L940 194M944 194L945 195L944 194M990 194L991 195L990 194M75 195L76 196L75 195M141 195L142 196L141 195M253 195L254 196L253 195M447 195L448 196L447 195M500 195L501 196L500 195z"/>
<path style="fill:#9e9e9e; stroke:none;" d="M543 195L544 196L543 195z"/>
<path style="fill:#355f4d; stroke:none;" d="M566 195L567 196L566 195M637 195L638 196L637 195z"/>
<path style="fill:#9e9e9e; stroke:none;" d="M681 195L682 196L681 195z"/>
<path style="fill:#355f4d; stroke:none;" d="M700 195L701 196L700 195M742 195L744 197L742 195M798 195L799 196L798 195M908 195L909 196L908 195z"/>
<path style="fill:#9e9e9e; stroke:none;" d="M944 195L949 199L949 198L944 195z"/>
<path style="fill:#355f4d; stroke:none;" d="M989 195L990 196L989 195M143 196L144 197L143 196M224 196L224 199L225 199L224 196M251 196L252 197L251 196M317 196L318 197L317 196M448 196L449 197L448 196z"/>
<path style="fill:#9e9e9e; stroke:none;" d="M489.333 196.667L489.667 197.333L489.333 196.667z"/>
<path style="fill:#355f4d; stroke:none;" d="M501 196L502 197L501 196z"/>
<path style="fill:#9e9e9e; stroke:none;" d="M542 196L543 197L542 196z"/>
<path style="fill:#355f4d; stroke:none;" d="M567 196L568 197L567 196M638 196L639 197L638 196M701 196L702 197L701 196z"/>
<path style="fill:#9e9e9e; stroke:none;" d="M742.333 196.667L742.667 197.333L742.333 196.667z"/>
<path style="fill:#355f4d; stroke:none;" d="M799 196L800 197L799 196z"/>
<path style="fill:#9e9e9e; stroke:none;" d="M909 196L914 201L909 196z"/>
<path style="fill:#355f4d; stroke:none;" d="M944 196L945 197L944 196z"/>
<path style="fill:#9e9e9e; stroke:none;" d="M988 196L989 197L988 196z"/>
<path style="fill:#355f4d; stroke:none;" d="M78 197L79 198L78 197M144 197L145 198L144 197M188.333 197.667L188.667 198.333L188.333 197.667M250 197L251 198L250 197M316 197L317 198L316 197M449 197L450 198L449 197z"/>
<path style="fill:#9e9e9e; stroke:none;" d="M503 197L504 198L503 197z"/>
<path style="fill:#355f4d; stroke:none;" d="M541 197L542 198L541 197z"/>
<path style="fill:#9e9e9e; stroke:none;" d="M568 197L569 198L568 197M598 199L601 198L598 199z"/>
<path style="fill:#355f4d; stroke:none;" d="M639 197L640 198L639 197z"/>
<path style="fill:#9e9e9e; stroke:none;" d="M681 197L682 198L681 197z"/>
<path style="fill:#355f4d; stroke:none;" d="M702 197L703 198L702 197z"/>
<path style="fill:#9e9e9e; stroke:none;" d="M800 197L804 201L800 197M830.667 197.333L831.333 197.667L830.667 197.333z"/>
<path style="fill:#355f4d; stroke:none;" d="M909 197L910 198L909 197z"/>
<path style="fill:#9e9e9e; stroke:none;" d="M940 197L940 202L941 202L940 197z"/>
<path style="fill:#355f4d; stroke:none;" d="M945 197L946 198L945 197z"/>
<path style="fill:#9e9e9e; stroke:none;" d="M987 197L988 198L987 197z"/>
<path style="fill:#355f4d; stroke:none;" d="M79 198L80 199L79 198M146 198L147 199L146 198M248 198L249 199L248 198M314 198L315 199L314 198z"/>
<path style="fill:#9e9e9e; stroke:none;" d="M451 198L452 199L451 198M482 201L482 202L489 199L482 201z"/>
<path style="fill:#355f4d; stroke:none;" d="M504 198L506 200L504 198z"/>
<path style="fill:#9e9e9e; stroke:none;" d="M505 198L506 199L505 198M539 198L538 200L539 198z"/>
<path style="fill:#355f4d; stroke:none;" d="M540 198L541 199L540 198z"/>
<path style="fill:#9e9e9e; stroke:none;" d="M569 198L570 199L569 198z"/>
<path style="fill:#355f4d; stroke:none;" d="M599 198L601 200L601 198L599 198z"/>
<path style="fill:#9e9e9e; stroke:none;" d="M641 198L641 199L644 200L641 198M675 200L675 201L681 199L675 200z"/>
<path style="fill:#355f4d; stroke:none;" d="M703 198L704 199L703 198z"/>
<path style="fill:#9e9e9e; stroke:none;" d="M740 198L739 200L740 198z"/>
<path style="fill:#355f4d; stroke:none;" d="M741 198L742 199L741 198M800 198L801 199L800 198z"/>
<path style="fill:#9e9e9e; stroke:none;" d="M829 198L830 199L829 198z"/>
<path style="fill:#355f4d; stroke:none;" d="M831 198L832 199L831 198M910 198L911 199L910 198M947 198L948 199L947 198z"/>
<path style="fill:#9e9e9e; stroke:none;" d="M986 198L987 199L986 198z"/>
<path style="fill:#355f4d; stroke:none;" d="M81 199L82 200L81 199M147 199L148 200L147 199M247 199L248 200L247 199M313 199L314 200L313 199M452 199L452 200L457 202L457 201L452 199z"/>
<path style="fill:#9e9e9e; stroke:none;" d="M453 199L454 200L453 199z"/>
<path style="fill:#355f4d; stroke:none;" d="M487 199L488 200L487 199z"/>
<path style="fill:#9e9e9e; stroke:none;" d="M506 199L507 200L506 199z"/>
<path style="fill:#355f4d; stroke:none;" d="M539 199L540 200L539 199M570 199L572 201L570 199z"/>
<path style="fill:#9e9e9e; stroke:none;" d="M571 199L572 200L571 199M597 199L598 200L597 199z"/>
<path style="fill:#355f4d; stroke:none;" d="M642 199L643 200L642 199M679 199L680 200L679 199M705 199L705 200L712 203L712 202L705 199z"/>
<path style="fill:#9e9e9e; stroke:none;" d="M706 199L707 200L706 199z"/>
<path style="fill:#355f4d; stroke:none;" d="M740 199L741 200L740 199M801 199L802 200L801 199z"/>
<path style="fill:#9e9e9e; stroke:none;" d="M827 199L826 201L827 199z"/>
<path style="fill:#355f4d; stroke:none;" d="M828 199L829 200L828 199z"/>
<path style="fill:#9e9e9e; stroke:none;" d="M832.333 199.667L832.667 200.333L832.333 199.667z"/>
<path style="fill:#355f4d; stroke:none;" d="M911 199L912 200L911 199M941 199L941 202L942 202L941 199M949 199L950 200L949 199z"/>
<path style="fill:#9e9e9e; stroke:none;" d="M950 199L951 200L950 199M984 199L983 201L984 199z"/>
<path style="fill:#355f4d; stroke:none;" d="M985 199L986 200L985 199M82 200L83 201L82 200M187.333 200.667L187.667 201.333L187.333 200.667M223.333 200.667L223.667 201.333L223.333 200.667z"/>
<path style="fill:#9e9e9e; stroke:none;" d="M455 200L456 201L455 200z"/>
<path style="fill:#355f4d; stroke:none;" d="M486 200L487 201L486 200M507 200L508 201L507 200z"/>
<path style="fill:#9e9e9e; stroke:none;" d="M508 200L509 201L508 200M536 200L537 201L536 200z"/>
<path style="fill:#355f4d; stroke:none;" d="M537 200L538 201L537 200z"/>
<path style="fill:#9e9e9e; stroke:none;" d="M572 200L573 201L572 200M595 200L596 201L595 200z"/>
<path style="fill:#355f4d; stroke:none;" d="M596 200L597 201L596 200M644 200L645 201L644 200z"/>
<path style="fill:#9e9e9e; stroke:none;" d="M645 200L646 201L645 200z"/>
<path style="fill:#355f4d; stroke:none;" d="M677 200L678 201L677 200z"/>
<path style="fill:#9e9e9e; stroke:none;" d="M708 200L709 201L708 200M737 200L738 201L737 200z"/>
<path style="fill:#355f4d; stroke:none;" d="M738 200L739 201L738 200M802 200L803 201L802 200M827 200L828 201L827 200M912 200L913 201L912 200M951 200L952 201L951 200z"/>
<path style="fill:#9e9e9e; stroke:none;" d="M952 200L953 201L952 200z"/>
<path style="fill:#355f4d; stroke:none;" d="M984 200L985 201L984 200M150 201L151 202L150 201M244 201L245 202L244 201M310 201L311 202L310 201z"/>
<path style="fill:#9e9e9e; stroke:none;" d="M457 201L458 202L457 201z"/>
<path style="fill:#355f4d; stroke:none;" d="M484 201L485 202L484 201M509 201L510 202L509 201z"/>
<path style="fill:#9e9e9e; stroke:none;" d="M510.667 201.333L511.333 201.667L510.667 201.333M530 202L530 203L535 202L530 202z"/>
<path style="fill:#355f4d; stroke:none;" d="M535 201L536 202L535 201M573 201L576 203L576 202L573 201z"/>
<path style="fill:#9e9e9e; stroke:none;" d="M574 201L575 202L574 201M593 201L594 202L593 201z"/>
<path style="fill:#355f4d; stroke:none;" d="M594.667 201.333L595.333 201.667L594.667 201.333M646 201L647 202L646 201z"/>
<path style="fill:#9e9e9e; stroke:none;" d="M647 201L647 202L652 203L652 202L647 201M673 201L674 202L673 201z"/>
<path style="fill:#355f4d; stroke:none;" d="M674.667 201.333L675.333 201.667L674.667 201.333z"/>
<path style="fill:#9e9e9e; stroke:none;" d="M710 201L711 202L710 201M735 201L736 202L735 201z"/>
<path style="fill:#355f4d; stroke:none;" d="M736.667 201.333L737.333 201.667L736.667 201.333M804 201L804 202L809 204L809 203L804 201z"/>
<path style="fill:#9e9e9e; stroke:none;" d="M805 201L806 202L805 201M824 201L825 202L824 201z"/>
<path style="fill:#355f4d; stroke:none;" d="M825 201L826 202L825 201M832 201L833 202L832 201M914 201L917 203L917 202L914 201z"/>
<path style="fill:#9e9e9e; stroke:none;" d="M915 201L916 202L915 201z"/>
<path style="fill:#355f4d; stroke:none;" d="M953 201L954 202L953 201z"/>
<path style="fill:#9e9e9e; stroke:none;" d="M954.667 201.333L955.333 201.667L954.667 201.333M980.667 201.333L981.333 201.667L980.667 201.333z"/>
<path style="fill:#355f4d; stroke:none;" d="M982 201L983 202L982 201M85 202L86 203L85 202M151 202L152 203L151 202M243 202L244 203L243 202M309 202L310 203L309 202M458 202L459 203L458 202z"/>
<path style="fill:#9e9e9e; stroke:none;" d="M459.667 202.333L460.333 202.667L459.667 202.333M478 202L478 203L481 203L478 202z"/>
<path style="fill:#355f4d; stroke:none;" d="M481.667 202.333L482.333 202.667L481.667 202.333M511.667 202.333L512.333 202.667L511.667 202.333z"/>
<path style="fill:#9e9e9e; stroke:none;" d="M513.667 202.333L514.333 202.667L513.667 202.333z"/>
<path style="fill:#355f4d; stroke:none;" d="M533 202L534 203L533 202z"/>
<path style="fill:#9e9e9e; stroke:none;" d="M576 202L577 203L576 202M591 202L592 203L591 202z"/>
<path style="fill:#355f4d; stroke:none;" d="M592.667 202.333L593.333 202.667L592.667 202.333M601 202L602 203L601 202M618 202L619 203L618 202M648 202L649 203L648 202z"/>
<path style="fill:#9e9e9e; stroke:none;" d="M669.667 202.333L670.333 202.667L669.667 202.333z"/>
<path style="fill:#355f4d; stroke:none;" d="M671.667 202.333L672.333 202.667L671.667 202.333z"/>
<path style="fill:#9e9e9e; stroke:none;" d="M712.667 202.333L713.333 202.667L712.667 202.333M731 202L731 203L734 203L731 202z"/>
<path style="fill:#355f4d; stroke:none;" d="M734 202L735 203L734 202M752 202L753 203L752 202M773 202L774 203L773 202z"/>
<path style="fill:#9e9e9e; stroke:none;" d="M807 202L808 203L807 202M821.667 202.333L822.333 202.667L821.667 202.333z"/>
<path style="fill:#355f4d; stroke:none;" d="M823 202L824 203L823 202z"/>
<path style="fill:#9e9e9e; stroke:none;" d="M833 202L833 203L849 203L833 202z"/>
<path style="fill:#355f4d; stroke:none;" d="M849 202L850 203L849 202M887 202L888 203L887 202z"/>
<path style="fill:#9e9e9e; stroke:none;" d="M917.667 202.333L918.333 202.667L917.667 202.333M937.667 202.333L938.333 202.667L937.667 202.333z"/>
<path style="fill:#355f4d; stroke:none;" d="M939.667 202.333L940.333 202.667L939.667 202.333M955.667 202.333L956.333 202.667L955.667 202.333z"/>
<path style="fill:#9e9e9e; stroke:none;" d="M957.667 202.333L958.333 202.667L957.667 202.333M977.667 202.333L978.333 202.667L977.667 202.333z"/>
<path style="fill:#355f4d; stroke:none;" d="M979.667 202.333L980.333 202.667L979.667 202.333M86 203L87 204L86 203M153 203L154 204L153 203M222.333 203.667L222.667 204.333L222.333 203.667M241 203L242 204L241 203M307 203L308 204L307 203M460 203L460 204L463 204L460 203z"/>
<path style="fill:#9e9e9e; stroke:none;" d="M463 203L463 204L468 204L463 203M472 203L472 204L477 204L472 203z"/>
<path style="fill:#355f4d; stroke:none;" d="M477.667 203.333L478.333 203.667L477.667 203.333M514.667 203.333L515.333 203.667L514.667 203.333z"/>
<path style="fill:#9e9e9e; stroke:none;" d="M516 203L516 204L520 204L516 203M525 203L525 204L529 204L525 203z"/>
<path style="fill:#355f4d; stroke:none;" d="M529.667 203.333L530.333 203.667L529.667 203.333M577.667 203.333L578.333 203.667L577.667 203.333z"/>
<path style="fill:#9e9e9e; stroke:none;" d="M579 203L579 204L583 204L579 203M587 203L587 204L590 204L587 203z"/>
<path style="fill:#355f4d; stroke:none;" d="M590 203L591 204L590 203M651.667 203.333L652.333 203.667L651.667 203.333z"/>
<path style="fill:#9e9e9e; stroke:none;" d="M653 203L653 204L658 204L653 203M663 203L663 204L667 204L663 203z"/>
<path style="fill:#355f4d; stroke:none;" d="M667 203L667 204L670 204L667 203M713 203L713 204L716 204L713 203z"/>
<path style="fill:#9e9e9e; stroke:none;" d="M716 203L716 204L720 204L716 203M725 203L725 204L730 204L725 203z"/>
<path style="fill:#355f4d; stroke:none;" d="M730.667 203.333L731.333 203.667L730.667 203.333z"/>
<path style="fill:#9e9e9e; stroke:none;" d="M809 203L809 204L813 204L809 203M817 203L817 204L820 204L817 203z"/>
<path style="fill:#355f4d; stroke:none;" d="M820.667 203.333L821.333 203.667L820.667 203.333M918.667 203.333L919.333 203.667L918.667 203.333z"/>
<path style="fill:#9e9e9e; stroke:none;" d="M920 203L920 204L924 204L920 203M930 203L930 204L935 204L930 203z"/>
<path style="fill:#355f4d; stroke:none;" d="M935 203L935 204L938 204L935 203M958 203L958 204L961 204L958 203z"/>
<path style="fill:#9e9e9e; stroke:none;" d="M961 203L961 204L965 204L961 203M971 203L971 204L975 204L971 203z"/>
<path style="fill:#355f4d; stroke:none;" d="M975 203L975 204L978 204L975 203M984 203L984 221L985 221L984 203z"/>
<path style="fill:#01c774; stroke:none;" d="M985 203L985 221L1049 221L1049 203L985 203z"/>
<path style="fill:#355f4d; stroke:none;" d="M1049 203L1049 221L1050 221L1049 203M88 204L89 205L88 204M154 204L155 205L154 204M186.333 204.667L186.667 205.333L186.333 204.667M240 204L241 205L240 204M306 204L307 205L306 204M466 204L466 205L474 205L466 204M518 204L518 205L527 205L518 204M581 204L581 205L588 205L581 204M656 204L656 205L665 205L656 204M719 204L719 205L727 205L719 204M811 204L811 205L818 205L811 204M922 204L922 205L932 205L922 204M963 204L963 205L973 205L963 204M89 205L90 206L89 205M239 205L240 206L239 205M304 205L305 206L304 205M157 206L158 207L157 206M221 206L221 209L222 209L221 206M303 206L304 207L303 206M92 207L93 208L92 207M158 207L159 208L158 207M185.333 207.667L185.667 208.333L185.333 207.667M238.333 207.667L238.667 208.333L238.333 207.667M93 208L94 209L93 208M160 208L161 209L160 208M300 208L301 209L300 208M95 209L96 210L95 209M161 209L162 210L161 209M299 209L300 210L299 209M96 210L97 211L96 210M184 210L184 213L185 213L184 210M220.333 210.667L220.667 211.333L220.333 210.667M237.333 210.667L237.667 211.333L237.333 210.667M297 210L298 211L297 210M98 211L99 212L98 211M164 211L165 212L164 211M296 211L297 212L296 211M99 212L100 213L99 212M165 212L166 213L165 212M100 213L101 214L100 213M167 213L167 260L168 260C168 246.735 172.11 225.177 167 213M219 213L219 216L220 216L219 213M236.333 213.667L236.667 214.333L236.333 213.667M293 213L294 214L293 213M102 214L103 215L102 214M183.333 214.667L183.667 215.333L183.333 214.667M292 214L293 215L292 214M103 215L104 216L103 215M290 215L291 216L290 215M105 216L106 217L105 216M235.333 216.667L235.667 217.333L235.333 216.667M289 216L290 217L289 216M106 217L107 218L106 217M182 217L182 220L183 220L182 217M218.333 217.667L218.667 218.333L218.333 217.667M287 217L288 218L287 217M107 218L108 219L107 218M286 218L287 219L286 218M109 219L110 220L109 219M110 220L111 221L110 220M217 220L217 223L218 223L217 220M234.333 220.667L234.667 221.333L234.333 220.667M283 220L284 221L283 220M112 221L113 222L112 221M181.333 221.667L181.667 222.333L181.333 221.667M282 221L283 222L282 221M113 222L114 223L113 222M280 222L281 223L280 222M114 223L115 224L114 223M233.333 223.667L233.667 224.333L233.333 223.667M279 223L280 224L279 223M116 224L117 225L116 224M180 224L180 227L181 227L180 224M216.333 224.667L216.667 225.333L216.333 224.667M277 224L278 225L277 224M117 225L118 226L117 225M276 225L277 226L276 225M119 226L120 227L119 226M232.333 226.667L232.667 227.333L232.333 226.667M275 226L276 227L275 226M120 227L121 228L120 227M215 227L215 230L216 230L215 227M273 227L274 228L273 227M121 228L122 229L121 228M179.333 228.667L179.667 229.333L179.333 228.667M272 228L273 229L272 228M123 229L124 230L123 229M231.333 229.667L231.667 230.333L231.333 229.667M270 229L271 230L270 229M124 230L125 231L124 230M269 230L270 231L269 230M126 231L127 232L126 231M178 231L178 234L179 234L178 231M214.333 231.667L214.667 232.333L214.333 231.667M127 232L128 233L127 232M230 232L230 235L231 235L230 232M266 232L267 233L266 232M128 233L129 234L128 233M265 233L266 234L265 233M130 234L131 235L130 234M213 234L213 237L214 237L213 234M263 234L264 235L263 234M131 235L132 236L131 235M177.333 235.667L177.667 236.333L177.333 235.667M262 235L263 236L262 235M133 236L134 237L133 236M229.333 236.667L229.667 237.333L229.333 236.667M260 236L261 237L260 236M134 237L135 238L134 237M259 237L260 238L259 237M135 238L136 239L135 238M176.333 238.667L176.667 239.333L176.333 238.667M212.333 238.667L212.667 239.333L212.333 238.667M258 238L259 239L258 238M137 239L138 240L137 239M228.333 239.667L228.667 240.333L228.333 239.667M256 239L257 240L256 239M138 240L139 241L138 240M255 240L256 241L255 240M140 241L141 242L140 241M211.333 241.667L211.667 242.333L211.333 241.667M253 241L254 242L253 241M141 242L142 243L141 242M175.333 242.667L175.667 243.333L175.333 242.667M227.333 242.667L227.667 243.333L227.333 242.667M252 242L253 243L252 242M144 244L145 245L144 244M249 244L250 245L249 244M145 245L146 246L145 245M174.333 245.667L174.667 246.333L174.333 245.667M210.333 245.667L210.667 246.333L210.333 245.667M226 245L226 248L227 248L226 245M248 245L249 246L248 245M147 246L148 247L147 246M246 246L247 247L246 246M148 247L149 248L148 247M245 247L246 248L245 247M173 248L173 251L174 251L173 248M209.333 248.667L209.667 249.333L209.333 248.667M243 248L244 249L243 248M151 249L152 250L151 249M225.333 249.667L225.667 250.333L225.333 249.667M242 249L243 250L242 249M152 250L153 251L152 250M154 251L155 252L154 251M208 251L208 254L209 254L208 251M239 251L240 252L239 251M155 252L156 253L155 252M172.333 252.667L172.667 253.333L172.333 252.667M224.333 252.667L224.667 253.333L224.333 252.667M238 252L239 253L238 252M236 253L237 254L236 253M158 254L159 255L158 254M235 254L236 255L235 254M159 255L160 256L159 255M171 255L171 258L172 258L171 255M207.333 255.667L207.667 256.333L207.333 255.667M223.333 255.667L223.667 256.333L223.333 255.667M161 256L162 257L161 256M232 256L233 257L232 256M162 257L163 258L162 257M231 257L232 258L231 257M206 258L206 261L207 261L206 258M222 258L224 263L222 258M229 258L230 259L229 258M165 259L166 260L165 259M170.333 259.667L170.667 260.333L170.333 259.667M228 259L229 260L228 259M166 260L167 261L166 260M226 260L227 261L226 260M225 261L226 262L225 261M169 262L169 265L170 265L169 262M205.333 262.667L205.667 263.333L205.333 262.667M204 265L204 268L205 268L204 265M168.333 266.667L168.667 267.333L168.333 266.667M167 269L167 272L168 272L167 269M203.333 269.667L203.667 270.333L203.333 269.667M202 272L202 275L203 275L202 272M166.333 273.667L166.667 274.333L166.333 273.667M165.333 276.667L165.667 277.333L165.333 276.667M201.333 276.667L201.667 277.333L201.333 276.667M200.333 279.667L200.667 280.333L200.333 279.667M164.333 280.667L164.667 281.333L164.333 280.667M163.333 283.667L163.667 284.333L163.333 283.667M199.333 283.667L199.667 284.333L199.333 283.667M162 286L162 289L163 289L162 286M198.333 286.667L198.667 287.333L198.333 286.667M197 289L197 292L198 292L197 289M161.333 290.667L161.667 291.333L161.333 290.667M160 293L160 296L161 296L160 293M196.333 293.667L196.667 294.333L196.333 293.667M195 296L195 299L196 299L195 296M159.333 297.667L159.667 298.333L159.333 297.667M162.667 299.333L163.333 299.667L162.667 299.333M166 300L167 301L166 300M194.333 300.667L194.667 301.333L194.333 300.667M169 301L170 302L169 301M172.667 302.333L173.333 302.667L172.667 302.333M176 303L177 304L176 303M193 303L193 306L194 306L193 303M179.667 304.333L180.333 304.667L179.667 304.333M182.667 305.333L183.333 305.667L182.667 305.333M186 306L187 307L186 306M189.667 307.333L190.333 307.667L189.667 307.333M192 307L193 308L192 307z"/>
</svg>
